<svg xmlns="http://www.w3.org/2000/svg" version="1.1" viewBox="-5.0 -10.0 110.0 135.0">
 <path d="m50 19.164c-7.7109 0-14.016 6.2461-14.016 13.922 0 7.6758 6.3008 13.922 14.016 13.922 7.7109 0 14-6.2461 14-13.922 0-7.6758-6.2891-13.922-14-13.922zm0 3.125c6.0352 0 10.875 4.8242 10.875 10.797 0 5.9727-4.8398 10.793-10.875 10.793s-10.887-4.8203-10.887-10.793c0-5.9727 4.8516-10.797 10.887-10.797zm-31.047 6c-6.5117 0-11.836 5.293-11.836 11.785 0 6.4922 5.3242 11.777 11.836 11.777s11.824-5.2812 11.824-11.777c0-6.4922-5.3086-11.785-11.824-11.785zm62.102 0c-6.5117 0-11.836 5.293-11.836 11.785 0 6.4922 5.3242 11.777 11.836 11.777 6.5117 0 11.824-5.2812 11.824-11.777 0-6.4922-5.3086-11.785-11.824-11.785zm-62.102 3.125c4.832 0 8.6953 3.8633 8.6953 8.6602s-3.8633 8.6641-8.6953 8.6641-8.7109-3.8672-8.7109-8.6641 3.8789-8.6602 8.7109-8.6602zm62.102 0c4.832 0 8.6953 3.8633 8.6953 8.6602s-3.8633 8.6641-8.6953 8.6641c-4.832 0-8.7109-3.8672-8.7109-8.6641s3.8789-8.6602 8.7109-8.6602zm-31.051 18.234c-7.6602 0-14.426 3.7656-18.523 9.543-3.3359-2.9258-7.7266-4.6953-12.523-4.6953-10.469 0-18.953 8.4375-18.953 18.867v5.918h-0.0039062c0.0039062 0.85547 0.69922 1.5508 1.5547 1.5547 0.41797 0.003906 0.8125-0.16016 1.1094-0.45313 0.29297-0.29297 0.46094-0.6875 0.46094-1.1016v-5.918c0-8.7461 7.0273-15.742 15.828-15.742 4.2344 0 8.043 1.6328 10.871 4.293-1.5742 3.0625-2.4609 6.5352-2.4609 10.219v7.1484h-0.003906c0.003906 0.85547 0.69922 1.5508 1.5547 1.5547 0.41406 0.003906 0.8125-0.16016 1.1094-0.45313 0.29297-0.29297 0.46094-0.6875 0.46094-1.1016v-7.1484c0-3.5156 0.92969-6.8047 2.5586-9.6328v-0.003906c0.03125-0.046875 0.058593-0.097656 0.082031-0.14844 3.3711-5.7422 9.6367-9.5781 16.875-9.5781 7.2734 0 13.566 3.875 16.922 9.6719v0.003906c0.015625 0.023438 0.027344 0.050782 0.042969 0.074219 1.6172 2.8242 2.5391 6.1055 2.5391 9.6094v7.1523c0 0.41406 0.16797 0.80859 0.46094 1.1016 0.29688 0.29297 0.69141 0.45703 1.1094 0.45313 0.85938 0 1.5547-0.69531 1.5586-1.5547v-7.1484c0-3.6836-0.89062-7.1562-2.4609-10.219 2.8281-2.6602 6.6484-4.2891 10.883-4.2891 8.7969 0 15.824 6.9961 15.824 15.742v5.918l-0.003906-0.003906c0.003906 0.85547 0.69922 1.5508 1.5547 1.5547 0.41406 0.003906 0.8125-0.16016 1.1094-0.45313 0.29297-0.29297 0.46094-0.6875 0.46094-1.1016v-5.918c0-10.43-8.4805-18.867-18.949-18.867-4.7969 0-9.1953 1.7695-12.535 4.6953-4.0938-5.7773-10.855-9.543-18.516-9.543z"/>
<text x="0.0" y="117.5" font-size="5.0" font-weight="bold" font-family="Arbeit Regular, Helvetica, Arial-Unicode, Arial, Sans-serif" fill="#000000">Created by Larea</text><text x="0.0" y="122.5" font-size="5.0" font-weight="bold" font-family="Arbeit Regular, Helvetica, Arial-Unicode, Arial, Sans-serif" fill="#000000">from Noun Project</text></svg>