<svg xmlns="http://www.w3.org/2000/svg" version="1.1" viewBox="-5.0 -10.0 110.0 135.0">
 <path d="m2.4258 76.203c0.19531 0.097656 4.9141 2.4375 13.16 4.793 7.5781 2.1641 19.703 4.75 34.414 4.75s26.832-2.582 34.414-4.75c8.25-2.3594 12.961-4.6953 13.16-4.793 0.59375-0.29688 0.9375-0.9375 0.85156-1.5977-0.085937-0.66016-0.57812-1.1953-1.2266-1.3281-0.10547-0.023438-6.1562-1.2891-14.281-2.6758l3.6641-1.7148c0.78125-0.36719 1.1172-1.2969 0.75391-2.0781l-2.6484-5.6641c-0.86328-1.8438-2.7812-2.8672-4.7031-2.6797l-18.094-38.707c0.49219-0.48437 0.87891-1.0703 1.1211-1.7422 0.42969-1.1797 0.37109-2.4492-0.16016-3.5859l-2.6484-5.6641c-0.36719-0.78125-1.2969-1.1172-2.0781-0.75391l-5.6641 2.6484c-0.78125 0.36719-1.1172 1.2969-0.75391 2.0781l2.6484 5.6641c0.53125 1.1328 1.4688 1.9961 2.6484 2.4219 0.52344 0.1875 1.0625 0.28125 1.6016 0.28125 0.15234 0 0.30469-0.007813 0.45312-0.023438l3.5156 7.5156-8.7539 5.8359c-0.023437 0.015625-0.046874 0.035156-0.070312 0.054687-0.69531-0.20312-1.4297-0.3125-2.1875-0.3125-4.3086 0-7.8125 3.5039-7.8125 7.8125 0 2.4453 1.1328 4.6328 2.8984 6.0703-1.3984 0.89453-2.5781 2.2148-3.4961 3.9414-1.6797 3.1445-2.5273 7.6641-2.5273 13.43v6.25h-0.5l-1.1719-2.9648c-0.25781-0.64844-0.91797-1.0508-1.6133-0.98047-15.895 1.6406-34.352 5.5-34.539 5.5391-0.64844 0.13672-1.1406 0.67187-1.2266 1.3281-0.085938 0.66016 0.25781 1.3008 0.85156 1.5977zm79.43-13.73 1.9844 4.2461-2.8281 1.3242-1.9844-4.2461c-0.17969-0.37891-0.19531-0.80469-0.054688-1.1953 0.14062-0.39062 0.42969-0.70312 0.80469-0.88281 0.21484-0.10156 0.4375-0.14844 0.66016-0.14844 0.58594 0 1.1523 0.33594 1.418 0.90234zm-24.668-45.387-1.9844-4.2461 2.8281-1.3242 1.9844 4.2461c0.17969 0.37891 0.19531 0.80469 0.054687 1.1953-0.14062 0.39062-0.42969 0.70312-0.80469 0.88281-0.37891 0.17969-0.80469 0.19531-1.1953 0.054687-0.39062-0.14062-0.70312-0.42969-0.88281-0.80469zm3.5547 16.5-1.2578 3.1406c-0.32031 0.80078 0.070313 1.7109 0.87109 2.0312 0.1875 0.078126 0.38672 0.10938 0.57812 0.10938 0.61719 0 1.207-0.37109 1.4531-0.98438l2.0859-5.2148 7.9375 16.973-15.273-2.1797c1.3828-1.4102 2.2422-3.3398 2.2422-5.4688 0-2.2891-0.99219-4.3555-2.5703-5.7852l3.9336-2.625zm-13.867 8.4062c0-2.5859 2.1016-4.6875 4.6875-4.6875 2.582 0 4.6875 2.1016 4.6875 4.6875 0 2.582-2.1016 4.6875-4.6875 4.6875s-4.6875-2.1016-4.6875-4.6875zm-3.125 23.438c0-7.0859 1.3398-15.531 7.707-15.625l17.188 2.4531c-4.082 1.9062-10.922 4.1133-18.266 2.2812-0.83594-0.21094-1.6875 0.29688-1.8945 1.1367-0.21094 0.83594 0.29688 1.6875 1.1367 1.8945 1.1875 0.29688 2.3555 0.49609 3.5039 0.625v10.359c0 0.86328 0.69922 1.5625 1.5625 1.5625s1.5625-0.69922 1.5625-1.5625v-10.195c8.8828-0.042969 15.941-4.293 17.688-5.4453l3.2148 6.8789c-0.49219 0.48438-0.87891 1.0703-1.1211 1.7422-0.42969 1.1797-0.37109 2.4492 0.16016 3.5859l2.2148 4.7383c-5.0352-0.80469-10.531-1.582-15.75-2.1211-0.69531-0.070312-1.3555 0.32812-1.6133 0.98047l-1.1719 2.9648h-16.125v-6.25zm-7.2656 5.5391 1.125 2.8477c0.23438 0.59375 0.8125 0.98828 1.4531 0.98828h21.875c0.64062 0 1.2188-0.39063 1.4531-0.98828l1.125-2.8477c10.414 1.1367 21.719 3.1641 28.039 4.375-7.1641 2.7031-22.156 7.2734-41.555 7.2734s-34.391-4.5742-41.555-7.2734c6.3164-1.2109 17.621-3.2344 28.039-4.375z"/>
 <path d="m96.875 89c-2.0156 0-3.7422-1.2422-3.7539-1.2539-0.55469-0.41406-1.3125-0.41406-1.8672 0-0.015625 0.011718-1.7422 1.2539-3.7539 1.2539s-3.7422-1.2422-3.7539-1.2539c-0.55469-0.41406-1.3125-0.41406-1.8672 0-0.015625 0.011718-1.7422 1.2539-3.7539 1.2539s-3.7422-1.2422-3.7539-1.2539c-0.55469-0.41406-1.3125-0.41406-1.8672 0-0.015625 0.011718-1.7422 1.2539-3.7539 1.2539s-3.7422-1.2422-3.7539-1.2539c-0.55469-0.41406-1.3125-0.41406-1.8672 0-0.015625 0.011718-1.7422 1.2539-3.7539 1.2539s-3.7422-1.2422-3.7539-1.2539c-0.55469-0.41406-1.3125-0.41406-1.8672 0-0.015625 0.011718-1.7422 1.2539-3.7539 1.2539s-3.7422-1.2422-3.7539-1.2539c-0.55469-0.41406-1.3125-0.41406-1.8672 0-0.015625 0.011718-1.7422 1.2539-3.7539 1.2539-2.0156 0-3.7422-1.2422-3.7539-1.2539-0.55469-0.41406-1.3125-0.41406-1.8672 0-0.015625 0.011718-1.7422 1.2539-3.7539 1.2539-2.0156 0-3.7422-1.2422-3.7539-1.2539-0.55469-0.41406-1.3125-0.41406-1.8672 0-0.015625 0.011718-1.7422 1.2539-3.7539 1.2539-2.0156 0-3.7422-1.2422-3.7539-1.2539-0.55469-0.41406-1.3125-0.41406-1.8672 0-0.015625 0.011718-1.7422 1.2539-3.7539 1.2539-2.0156 0-3.7422-1.2422-3.7539-1.2539-0.55469-0.41406-1.3125-0.41406-1.8672 0-0.015625 0.011718-1.7422 1.2539-3.7539 1.2539-0.86328 0-1.5625 0.69922-1.5625 1.5625s0.69922 1.5625 1.5625 1.5625c1.9688 0 3.6875-0.74219 4.6875-1.2891 1 0.55078 2.7188 1.2891 4.6875 1.2891 1.9727 0 3.6875-0.74219 4.6875-1.2891 1 0.55078 2.7188 1.2891 4.6875 1.2891 1.9727 0 3.6875-0.74219 4.6875-1.2891 1 0.55078 2.7188 1.2891 4.6875 1.2891 1.9727 0 3.6875-0.74219 4.6875-1.2891 1 0.55078 2.7188 1.2891 4.6875 1.2891 1.9727 0 3.6875-0.74219 4.6875-1.2891 1 0.55078 2.7188 1.2891 4.6875 1.2891s3.6875-0.74219 4.6875-1.2891c1 0.55078 2.7188 1.2891 4.6875 1.2891s3.6875-0.74219 4.6875-1.2891c1 0.55078 2.7188 1.2891 4.6875 1.2891s3.6875-0.74219 4.6875-1.2891c1 0.55078 2.7188 1.2891 4.6875 1.2891s3.6875-0.74219 4.6875-1.2891c1 0.55078 2.7188 1.2891 4.6875 1.2891s3.6875-0.74219 4.6875-1.2891c1 0.55078 2.7188 1.2891 4.6875 1.2891 0.86328 0 1.5625-0.69922 1.5625-1.5625s-0.69922-1.5625-1.5625-1.5625z"/>
<text x="0.0" y="117.5" font-size="5.0" font-weight="bold" font-family="Arbeit Regular, Helvetica, Arial-Unicode, Arial, Sans-serif" fill="#000000">Created by Izwar Muis</text><text x="0.0" y="122.5" font-size="5.0" font-weight="bold" font-family="Arbeit Regular, Helvetica, Arial-Unicode, Arial, Sans-serif" fill="#000000">from Noun Project</text></svg>