<svg xmlns="http://www.w3.org/2000/svg" xmlns:xlink="http://www.w3.org/1999/xlink" version="1.1" x="0px" y="0px" viewBox="0 0 100 125" enable-background="new 0 0 100 100" xml:space="preserve"><g><g><circle cx="68.347" cy="40.058" r="3.101"/><path d="M99.037,50.504l-4.45-2.614c-0.273-0.16-4.826-1.378-4.986-1.105l-0.168,0.287l-7.587-4.456    c0.17-0.434,0.197-0.918,0.009-1.378c-0.419-1.024-1.587-1.482-2.609-1.064l-0.913,0.379l-13.45-7.9l0.121-0.573    c0.187-1.089-0.544-2.124-1.635-2.311c-1.089-0.187-2.124,0.545-2.311,1.634l-1.442,6.873c-0.063,0.375-0.02,0.76,0.127,1.112    l2.935,6.995l-0.057,6.406h8.153v-4.976l9.877-3.981c0.301-0.123,0.559-0.315,0.771-0.543l7.608,4.469l-0.241,0.41    c-0.161,0.271,3.193,3.534,3.466,3.693l4.45,2.614c0.272,0.16,0.623,0.069,0.782-0.204l1.754-2.983    C99.4,51.014,99.31,50.665,99.037,50.504z M69.188,44.351h-3.076l-2.455-5.914l1.052-4.968l12.707,7.464L69.188,44.351z"/></g><g><circle cx="31.653" cy="40.058" r="3.101"/><path d="M0.963,50.504l4.45-2.614c0.273-0.16,4.826-1.378,4.985-1.105l0.169,0.287l7.587-4.456    c-0.171-0.434-0.197-0.918-0.01-1.378c0.418-1.024,1.586-1.482,2.609-1.064l0.913,0.379l13.452-7.9l-0.122-0.573    c-0.187-1.089,0.544-2.124,1.634-2.311c1.09-0.187,2.124,0.545,2.31,1.634l1.443,6.873c0.064,0.375,0.02,0.76-0.127,1.112    l-2.934,6.995l0.055,6.406h-8.153v-4.976l-9.877-3.981c-0.301-0.123-0.559-0.315-0.771-0.543l-7.608,4.469l0.241,0.41    c0.16,0.271-3.194,3.534-3.466,3.693l-4.451,2.614c-0.272,0.16-0.622,0.069-0.782-0.204L0.76,51.286    C0.6,51.014,0.69,50.665,0.963,50.504z M30.813,44.351h3.076l2.455-5.914l-1.051-4.968l-12.707,7.464L30.813,44.351z"/></g><circle cx="51.282" cy="40.333" r="3.267"/><g><path d="M81.615,51.879c-1.897,0-3.627,0.121-4.956,2.121H61.2l-0.108,0.822l11.75,6.793c0.136-0.047,0.295-0.131,0.486-0.131    c0.971,0,4.874,0.989,5.333,1.26l4.45,2.601c0.521,0.306,0.797,0.856,0.778,1.423c0.474-0.299,0.913-0.654,1.301-1.071    c2.379-1.276,3.997-3.512,3.997-6.4C89.188,55.114,85.797,51.879,81.615,51.879z"/><path d="M71.354,64.242l-0.077-0.331l-11.759-6.92c-0.226,0.086-0.458,0.13-0.699,0.142c-0.097,0.007-0.144,0.006-0.199,0.006    l-0.13-0.01c-0.637-0.066-1.164-0.367-1.561-0.847c-0.256-0.309-0.275-0.671-0.348-1.055L54,53.647V54h-8.175    c-0.55,0-0.814,0-0.956,0H26.62c-1.329-2-3.059-2.121-4.956-2.121c-4.182,0-7.572,3.258-7.572,7.439    c0,2.888,1.618,5.22,3.997,6.496C19.436,67.265,21.354,68,23.49,68h51.159C73.577,67,71.547,64.984,71.354,64.242z"/></g><path d="M82.594,66.212l-4.45-2.613c-0.273-0.161-4.827-1.378-4.986-1.105l-0.169,0.287L59.98,55.14   c0.025-0.081,0.043-0.165,0.053-0.253l0.683-6.487c0.063-0.587-0.266-1.146-0.809-1.38l-6.578-2.817   c-0.377-0.162-0.785-0.139-1.126,0.03l-4.596-0.036l-2.168-13.361c-0.113-0.703-0.776-1.179-1.479-1.066   c-0.704,0.114-1.18,0.776-1.067,1.479L45.32,46.21c0.005,0.03,0.011,0.061,0.02,0.091c-0.047,1.701-0.028,4.157,0.316,5.868   C45.708,52.424,45.765,53,45.825,53h7.733c-0.052,0-0.102-0.509-0.147-0.723l3.95,2.281l-0.009,0.064   c-0.078,0.742,0.458,1.395,1.198,1.473c0.069,0.007,0.141,0.004,0.21,0.002c0.288-0.015,0.554-0.129,0.77-0.301l13.056,7.668   l-0.241,0.411c-0.16,0.271,3.193,3.532,3.466,3.692l4.451,2.614c0.271,0.159,0.623,0.069,0.782-0.204l1.753-2.983   C82.957,66.722,82.865,66.372,82.594,66.212z M53.216,51.166c-0.057-0.344-0.101-0.673-0.119-0.964   c-0.062-0.966-0.024-2.117,0.041-3.149l4.793,2.055l-0.479,4.547L53.216,51.166z"/></g><text x="0" y="115" fill="#000000" font-size="5px" font-weight="bold" font-family="'Helvetica Neue', Helvetica, Arial-Unicode, Arial, Sans-serif">Created by Adriano Emerick</text><text x="0" y="120" fill="#000000" font-size="5px" font-weight="bold" font-family="'Helvetica Neue', Helvetica, Arial-Unicode, Arial, Sans-serif">from the Noun Project</text></svg>