<svg xmlns="http://www.w3.org/2000/svg" version="1.1" viewBox="-5.0 -10.0 110.0 135.0">
 <path d="m47.77 24.035c5.5938 0.058594 10.496-4.7695 10.477-10.426 0.011718-11.453-15.531-14.785-20.184-4.3047-3.043 6.7188 2.1719 14.812 9.6172 14.73zm-0.007812-15.211c5.9453 0.17969 6.1367 8.8789 0.20703 9.3242-6.2812 0.089843-6.5469-9.0352-0.27734-9.3242h0.074219z"/>
 <path d="m54.434 57.129c-1.5938-1.8203-4.8203-0.79297-5.0703 1.5938-0.12891 0.81641 0.15625 1.7344 0.71875 2.3633 0.50781 0.57031 8.6797 9.7969 11.383 12.844 0.007812-0.21484 0 18.191 0.003906 18.656-0.011719 1.3711 0.99609 2.6328 2.3516 2.8906 1.8086 0.39453 3.5586-1.0703 3.5352-2.8906-0.074219-0.99609 0.11719-15.297-0.058594-20.328-0.085937-0.50391-0.36719-1.0352-0.69141-1.4023-0.15234-0.17188-3.1836-3.5898-6.1758-6.9688-3.0039-3.3867-5.9336-6.6953-5.9609-6.7266l-0.03125-0.035156z"/>
 <path d="m51.543 28.391c-1.3477-1.6094-3.1797-0.99609-5.1875-1.1094-3.5977-0.003906-9.0898 0.003906-12.27 0-0.21875-0.011719-0.53906 0.042969-0.82031 0.11719-0.89453 0.21484-1.7148 1.0469-1.9844 1.8867-0.066406 0.19922-4.1289 12.426-6.2891 18.914-1.0078 3.3008-1.3203 3.3047-1.4453 4.9453 0.015625 1.2305 0.94531 2.4141 2.1328 2.7227 1.1367 0.25391 6.0664 0.066406 8.5273 0.10937 4.1055-0.40234 3.4727-6.25-0.62891-5.875-0.89453-0.003906-2.3828 0.003907-3.0039 0-0.019531 0 4.8398-14.57 5.5352-16.68 0.050781-0.13281 0.058594-0.20312 0.089844-0.25391 0.007812-0.003907 9.2266 0 9.2305 0-0.078126 0.33594-0.15234 0.58203-0.26563 1.0312-3.3203 12.707-9.5742 36.672-13.203 50.562-1.4844 5.7773-2.1953 8.1797-2.332 9.0938-0.29297 3.4375 4.6289 4.5039 5.7305 1.1484 0.19531-0.58594 16.605-63.641 16.73-64.047 0.20312-0.75391 0.035156-1.8398-0.49609-2.4883l-0.054688-0.070312z"/>
 <path d="m73.465 37.93c-2.4336 0.17187-3.0781 2.0469-2.8945 4.2266-0.007812 1.8789 0.019532 5.2227-0.011718 5.3594-0.41016-0.24609-1.0742-0.46875-1.5391-0.45703-2.293-0.007813-8.9805 0.003906-9.3828-0.003906-0.03125-0.039063-0.003907-0.082032-0.019531-0.17969-0.082032-1.7031-0.53516-10.559-0.54297-10.727-0.003907-0.035157-0.007813-0.11719-0.023438-0.23047-0.28125-2.7305-4.1875-3.5078-5.4844-1.0312-0.26562 0.45312-0.39062 1.0664-0.36328 1.5859 0.015625 0.34375 0.41406 8.168 0.59766 11.824 0.16406 2.0625-0.16016 2.4844 0.96484 3.7969 0.52344 0.53516 1.3281 0.85547 2.082 0.85156h9.668 2.4297c0.49219 0.019532 1.207-0.19922 1.6289-0.47656 0.003906 8.4922 0 40.633 0 41.652-0.070313 2.625 3.4609 4.0117 5.1719 1.918 0.44531-0.50781 0.70312-1.2109 0.71094-1.8945v-44.848-8.418c0.019531-1.5469-1.3086-2.9453-2.8945-2.9453h-0.089844z"/>
<text x="0.0" y="117.5" font-size="5.0" font-weight="bold" font-family="Arbeit Regular, Helvetica, Arial-Unicode, Arial, Sans-serif" fill="#000000">Created by Mike Zuidgeest</text><text x="0.0" y="122.5" font-size="5.0" font-weight="bold" font-family="Arbeit Regular, Helvetica, Arial-Unicode, Arial, Sans-serif" fill="#000000">from Noun Project</text></svg>