<svg xmlns="http://www.w3.org/2000/svg" version="1.1" viewBox="-5.0 -10.0 110.0 135.0">
 <path d="m50 13.809c-19.953 0-36.191 16.234-36.191 36.191 0 19.953 16.238 36.191 36.191 36.191 2.0273 0 4.0156-0.17578 5.9531-0.5 0.011719 0 0.023437 0.007813 0.035156 0.007813 0.125 0 0.25-0.03125 0.37109-0.082031 16.934-3.0156 29.832-17.832 29.832-35.617 0-19.953-16.238-36.191-36.191-36.191zm-30.125 20.039 1.7422-0.78906c1.25-0.57422 2.6914-0.39062 3.7617 0.47656l0.83594 0.67578c0.019531 0.039062 0.023437 0.085937 0.050781 0.125 0.15234 0.23047 0.38281 0.37891 0.63672 0.42969l10.664 8.6562c-1.5078 0.50781-2.9258 1.1562-4.2109 1.9609-0.027344-0.027343-0.039063-0.058593-0.070313-0.082031l-13.734-10.816c0.10547-0.21094 0.21094-0.42578 0.32422-0.63672zm26.324 5.7539c0.53516 0.27344 1.125 0.40625 1.7148 0.40625 0.57813 0 1.1602-0.13281 1.6914-0.39062l2.7539-1.3633c0.48438-0.24219 1.0664-0.25 1.5625-0.015625 1.2578 0.58203 2.7344 0.4375 3.8516-0.37891l4.3711-3.1914c0.30469-0.22656 0.72656-0.20703 1.0234 0.039062l0.81641 0.69141-7.4102 6.6758c-4.75-0.47656-11.07-0.65625-16.66 0.67969l-11.023-8.9414 1.918-1.2539c0.375-0.24219 0.83594-0.27344 1.2344-0.074219zm-6.4414-5.4766 4.5586-3.043c1.0195-0.67969 2.3164-0.73828 3.3828-0.14453l9.2266 5.0586-0.33594 0.24609c-0.53125 0.38672-1.2305 0.45703-1.8242 0.17969-1.0391-0.48828-2.2734-0.47266-3.2969 0.039063l-2.75 1.3594c-0.50781 0.25-1.1133 0.25-1.6172-0.007812zm-23.949 15.875c0-4.8555 1.0234-9.4766 2.8594-13.664l13.004 10.25c-1.0664 0.90625-2.2148 2.2734-1.832 3.8633 0.027344 0.10938 0.066406 0.21484 0.10938 0.32422l-14.121-0.003907c-0.003906-0.25781-0.019531-0.51172-0.019531-0.76953zm0.125 2.7695h15.887c1.9414 1.1875 5.25 2.0703 9.9141 2.6328 0.98828 0.12109 1.8711 0.71094 2.3633 1.582 0.45312 0.79688 0.54297 1.7148 0.24609 2.582-0.29297 0.85938-0.94531 1.5547-1.7852 1.9102-4.293 1.7969-7.7539 5.0195-9.8906 9.1172-0.80469-0.39844-2.082-0.84375-3.875-0.96875v-1.4336c2.3281-0.64453 4.0312-3.3555 4.0312-6.7031 0-3.8398-2.2422-6.8516-5.1016-6.8516s-5.1016 3.0078-5.1016 6.8516c0 3.4141 1.7695 6.1641 4.1719 6.7344v1.4102c-1.2266 0.082032-2.625 0.31641-4.207 0.76953-3.7344-5.0039-6.125-11.059-6.6523-17.633zm11.855 9.1914c-0.55078 0-1 0.44922-1 1v3.1211c-1.2383-0.63672-2.1719-2.4727-2.1719-4.5938 0-2.6289 1.418-4.8516 3.1016-4.8516 1.6797 0 3.1016 2.2227 3.1016 4.8516 0 2.043-0.85937 3.8242-2.0312 4.5234v-3.0547c0-0.55078-0.44531-0.99609-1-0.99609zm-3.8438 10.145c4.2617-1.0469 6.7773-0.23828 7.8477 0.29297l-2.2422 4.9883c-2.0625-1.5469-3.9375-3.3203-5.6055-5.2812zm44.215 6.8398c-0.035156-0.023437-0.054687-0.058593-0.09375-0.078124-1.5703-0.875-3.1328-1.8672-4.6445-2.9414-1.2539-0.89844-2.5508-1.9023-3.5391-3.168-1-1.293-1.5469-2.7227-1.5391-4.0312 0.003906-0.55078-0.44141-1.0039-0.99219-1.0078h-0.007812c-0.55078 0-0.99609 0.44531-1 0.99219-0.011719 2.2461 1.0586 4.1055 1.9609 5.2734 1.1523 1.4727 2.6484 2.6289 3.9609 3.5703 1.293 0.91797 2.6211 1.7539 3.957 2.5352-3.0117 1.6289-6.293 2.8125-9.7578 3.4766-1.8008-2.8555-2.6484-6.3438-2.3125-9.6914 0.054687-0.55078-0.34766-1.0391-0.89453-1.0938-0.55469-0.054688-1.0391 0.34766-1.0938 0.89453-0.34766 3.5 0.4375 7.1445 2.1641 10.227-1.4258 0.18359-2.8633 0.28906-4.3281 0.28906-4.3047 0-8.4219-0.80859-12.219-2.2656 1.543-6.5195 4.7891-11.906 9.168-15.172 0.44141-0.32812 0.53516-0.95703 0.20312-1.3984-0.33203-0.44141-0.95703-0.53516-1.3984-0.20312-4.6836 3.4922-8.1484 9.1641-9.832 15.996-1.6406-0.74219-3.2109-1.6094-4.6992-2.5938l2.75-6.1211c1.8594-4.125 5.1797-7.3594 9.3555-9.1094 1.3672-0.57422 2.4258-1.707 2.9023-3.1094 0.47656-1.3984 0.32812-2.9336-0.39844-4.2148-0.80078-1.418-2.2461-2.3828-3.8594-2.582-6.6602-0.80469-9.9141-2.3047-10.188-3.4375-0.14844-0.625 0.71094-1.6367 2.3008-2.6992 7.7812-5.1992 22.242-3.3867 27.418-2.5156-0.48438 0.39453-0.98047 0.74609-1.5156 1.0156-1.9609 1.0039-4.4297 0.90234-6.625 0.8125-0.95703-0.039062-1.9453-0.082031-2.8828-0.007812-0.80859 0.070312-1.5352 0.52734-1.9492 1.2266-0.34766 0.58984-0.42188 1.2656-0.21484 1.8906l0.003906 0.22656 0.17188 0.17578c0.38672 0.73828 1.0352 1.2461 1.6836 1.6836 1.0781 0.72656 2.2695 1.3359 3.5508 1.8164 0.62109 0.23047 1.9141 0.71094 1.9297 1.3008 0.003906 0.25781-0.21875 0.60156-0.45703 0.96484-0.32422 0.48828-0.68359 1.043-0.78125 1.7539-0.13672 1.0156 0.35938 2.1094 1.3047 2.8633 0.71094 0.55469 1.5391 0.84375 2.3008 1.1133 1.6562 0.58984 3.2656 1.3203 3.8047 2.668 0.25 0.62109 0.25781 1.3672 0.26953 2.1602 0.007813 0.46094 0.011719 0.94141 0.066406 1.4258 0.25781 2.3203 1.5859 4.6016 3.75 6.418 1.4609 1.2266 3.1055 2.1211 4.7578 2.9336-0.80859 0.61719-1.6484 1.1953-2.5117 1.7383zm4.2227-3.1328c-1.8164-0.86719-3.6562-1.7891-5.1797-3.0664-0.92578-0.77734-1.6562-1.6445-2.1758-2.5508 1.7305-0.5625 7.3594-2.125 13.137-0.83203-1.6523 2.3867-3.5938 4.5508-5.7812 6.4492zm1.9961-16.613c-0.55469 0-1 0.44922-1 1v3.0586c-1.1758-0.69531-2.0391-2.4805-2.0391-4.5273 0-2.6289 1.4219-4.8516 3.1016-4.8516 1.6797 0 3.1016 2.2227 3.1016 4.8516 0 2.1172-0.92578 3.9453-2.1602 4.5898v-3.1172c-0.003906-0.55469-0.44922-1.0039-1.0039-1.0039zm6.9258-22.922c1.8516 4.2031 2.8867 8.8438 2.8867 13.723 0 6.4297-1.7852 12.445-4.8828 17.586-1.3281-0.34766-2.6484-0.5625-3.9258-0.66406v-1.4609c2.3945-0.57813 4.1602-3.3242 4.1602-6.7344 0-3.8398-2.2422-6.8516-5.1016-6.8516s-5.1016 3.0078-5.1016 6.8516c0 3.3516 1.707 6.0664 4.0391 6.707v1.418c-4.2852 0.007813-7.8125 1.0391-9.1055 1.4766-0.054688-0.23047-0.09375-0.46094-0.12109-0.6875-0.042969-0.40625-0.046875-0.82031-0.054688-1.2344-0.011718-0.94141-0.027344-1.9141-0.41406-2.8789-0.83594-2.0898-2.9922-3.0977-5.0273-3.8203-0.64453-0.22656-1.2539-0.44141-1.6992-0.78906-0.37891-0.30078-0.60547-0.71484-0.5625-1.0273 0.035157-0.26562 0.24609-0.58594 0.46875-0.92578 0.35547-0.54297 0.79688-1.2227 0.78125-2.1016-0.046875-1.9492-2.1992-2.75-3.2266-3.1328-1.1328-0.42578-2.1875-0.96484-3.1328-1.6016-0.36328-0.24609-0.75781-0.53125-0.97266-0.85938v-0.16016l-0.11719-0.11719c0-0.054688 0.015626-0.10938 0.050782-0.16797 0.066406-0.10938 0.20312-0.23438 0.39062-0.25 0.82031-0.066407 1.6992-0.027344 2.6484 0.011719 0.21484 0.007812 0.4375 0.015624 0.66016 0.023437 0.17578 0.15234 0.39844 0.25781 0.65234 0.25781h26.57c0.55469 0 1-0.44922 1-1 0-0.55078-0.44531-1-1-1l-19.145 0.003906c0.72266-0.50781 1.3789-1.0859 2.0234-1.668l3.6328-3.2695c1.9609-1.7695 3.9922-3.6016 6.3438-4.7891 2.4922-1.2617 5.1172-1.5781 7.1953-0.875 0.03125 0.007813 0.058594 0 0.085938 0.007813zm-2.2227-4.2266c0.39453 0.63672 0.76562 1.2852 1.1172 1.9453-2.2305-0.30859-4.6836 0.14453-7.082 1.3594-2.5859 1.3086-4.7188 3.2305-6.7773 5.0898l-2.9219 2.6289c-0.69922-0.14062-2.1953-0.42188-4.207-0.69531l12.625-11.379c0.82422-0.74219 1.9805-0.95703 3.0117-0.55859l4.1289 1.5898c0.039063 0.015625 0.074219 0.011719 0.10547 0.019531zm-3.5117-3.4727c-1.7422-0.66797-3.6836-0.30859-5.0703 0.9375l-5.0234 4.5273-1.0273-0.87109c-1.0078-0.83594-2.4453-0.88672-3.4883-0.11719l-2.25 1.6406-10.047-5.5078c-1.7227-0.95312-3.8125-0.86328-5.4609 0.23438l-5.5039 3.6719-4.7656-2.3945c-1.0469-0.52344-2.25-0.45312-3.2266 0.1875l-2.4492 1.6055-0.625-0.50781c-1.4336-1.1562-3.2852-1.5234-5.0078-1.0469 6.1523-9.1172 16.574-15.129 28.375-15.129 11.012 0 20.816 5.2383 27.074 13.348zm-30.375 19.113c-2.9023 0.019532-5.8359 1.1133-8.0469 3-0.1875 0.16016-0.41797 0.23828-0.64844 0.23828-0.28125 0-0.5625-0.11719-0.76172-0.35156-0.35938-0.42188-0.30859-1.0508 0.10938-1.4102 2.5625-2.1914 5.9648-3.457 9.332-3.4805 0.58203 0.019531 1.0039 0.44141 1.0078 0.99219 0.007812 0.55469-0.4375 1.0078-0.99219 1.0117zm2.1445 8.1562c-0.46484-1.6484-1.4648-3.0117-2.7422-3.7383-0.48047-0.27344-0.64844-0.88281-0.375-1.3633 0.27344-0.48047 0.88281-0.64844 1.3633-0.375 1.7305 0.98438 3.0703 2.7812 3.6797 4.9258 0.5 1.7305 0.55469 3.6719 0.17188 5.918-0.082031 0.48828-0.50781 0.83203-0.98438 0.83203-0.054687 0-0.11328-0.003906-0.16797-0.015625-0.54688-0.09375-0.91016-0.60938-0.82031-1.1523 0.33203-1.9414 0.28906-3.5898-0.125-5.0312zm8.2461 7.5352c-0.17969 0.33203-0.52344 0.51953-0.875 0.51953-0.16406 0-0.32813-0.039063-0.48047-0.125-1.5117-0.83203-2.6094-2.1875-3.0156-3.7227-0.44922-1.7539 0.066406-3.625 1.3086-4.7695 0.40625-0.375 1.0391-0.34766 1.4141 0.058594s0.34766 1.0391-0.058594 1.4141c-0.69922 0.64453-0.99219 1.7695-0.73047 2.7969 0.25781 0.98437 1.0234 1.9102 2.043 2.4727 0.48438 0.26172 0.66016 0.87109 0.39453 1.3555zm-5.1914 6.0195c0.41406 0.36719 0.44922 1 0.078125 1.4141-2.3789 2.6641-4.0547 5.9297-4.8398 9.4336-0.10547 0.46484-0.51562 0.78125-0.97656 0.78125-0.074219 0-0.14844-0.007812-0.21875-0.023438-0.53906-0.12109-0.87891-0.65625-0.75781-1.1953 0.85937-3.8359 2.6953-7.4062 5.3008-10.328 0.37109-0.41406 1.0039-0.44922 1.4141-0.082031z"/>
<text x="0.0" y="117.5" font-size="5.0" font-weight="bold" font-family="Arbeit Regular, Helvetica, Arial-Unicode, Arial, Sans-serif" fill="#000000">Created by Fath Yusuf Iskhaqy</text><text x="0.0" y="122.5" font-size="5.0" font-weight="bold" font-family="Arbeit Regular, Helvetica, Arial-Unicode, Arial, Sans-serif" fill="#000000">from Noun Project</text></svg>