<svg version="1.1" xmlns="http://www.w3.org/2000/svg" style="display: block;" viewBox="0 0 2048 2048" width="1024" height="1024">
<path transform="translate(0,0)" fill="rgb(252,251,243)" d="M 0 0 L 547.978 0 L 571.635 0 L 669.633 0 L 672.856 0 L 705.242 0 L 707.969 0 L 890.328 0 L 893.827 0 L 938.14 0 L 945.362 0 L 1504.61 0 L 1581.93 0 L 1598.25 0 L 1717.24 0 L 1724.27 0 L 1813.29 0 L 2048 0 L 2048 208.933 L 2048 233.035 L 2048 235.292 L 2048 296.368 L 2048 375.263 L 2048 522.055 L 2048 524.413 L 2048 665.5 L 2048 2048 L 0 2048 L 0 115.07 L 0 40.7889 L 0 0 z"/>
<path transform="translate(0,0)" fill="rgb(92,121,109)" d="M 0 0 L 547.978 0 L 571.635 0 L 669.633 0 L 672.856 0 L 705.242 0 L 707.969 0 L 890.328 0 L 893.827 0 L 938.14 0 L 945.362 0 C 934.307 6.98902 904.195 19.495 902.088 33.3094 C 901.675 36.0163 902.654 38.4714 904.4 40.4967 C 913.347 50.874 933.907 50.3219 946.48 50.6938 C 959.224 51.0707 993.567 50.2101 1002.06 58.9345 C 1003.85 60.7773 1004.73 62.8345 1004.52 65.4423 C 1003.84 74.0014 992.335 79.0934 996.124 88.4683 C 1009.44 100.208 1063.36 111.896 1063.83 132.315 C 1063.93 136.852 1061.37 140.384 1058.15 143.316 C 1045.43 154.891 1025.59 163.495 1010.24 171.222 C 1014.12 176.2 1020.74 182.684 1019.29 189.631 C 1018.62 192.866 1016.72 195.026 1013.97 196.674 C 1002.72 203.39 978.257 204.726 965.105 204.942 C 958.042 205.058 950.079 204.394 943.152 205.82 C 939.015 206.671 932.666 210.148 931.594 214.634 C 930.706 218.349 932.781 221.859 935.016 224.642 C 942.959 234.531 965.193 245.34 964.204 259.461 C 963.921 263.497 961.546 266.678 958.497 269.17 C 943.425 281.485 904.895 283.541 886.092 281.021 C 868.717 278.693 824.241 262.648 811.283 270.698 C 809.503 273.138 808.917 274.78 809.503 277.831 C 812.784 294.902 848.258 326.454 837.384 342.866 C 832.555 350.154 821.732 353.046 813.566 354.367 C 775.904 360.464 739.962 341.199 710.555 319.685 C 694.24 307.748 647.293 264.244 628.941 267.985 C 626.522 268.479 624.656 269.512 623.453 271.764 C 619.984 278.263 624.266 288.725 626.922 294.95 C 633.259 309.803 645.874 329.542 639.686 346.042 C 637.527 351.8 632.484 354.969 627.035 357.326 C 618.902 360.844 610.064 359.137 602.159 355.779 C 593.762 352.211 586.648 346.236 580.44 339.656 C 565.994 324.342 527.484 261.009 502.536 271.057 C 485.63 277.867 477.565 324.951 456.85 317.282 C 434.448 308.99 430.442 281.016 408.511 272.064 C 387.885 263.645 371.639 284.542 352.371 278.809 C 326.328 271.061 308.519 235.107 282.03 224.207 C 275.488 221.514 250.332 220.156 241.323 218.524 C 199.494 210.945 156.756 201.5 117.737 184.29 C 143 209.787 169.335 235.327 196.846 258.396 C 263.562 314.337 336.367 361.759 408.018 410.927 C 478.147 459.05 545.928 510.28 626.298 540.331 C 666.207 555.254 714.423 561.558 756.85 561.641 C 770.085 561.666 777.911 551.969 786.526 543.184 C 792.13 537.471 797.604 531.699 802.341 525.231 C 808.724 516.513 821.177 490.103 832.778 490.431 C 836.321 490.531 839.247 492.192 841.617 494.755 C 846.553 500.092 850.936 515.276 859.238 515.257 C 865.125 515.244 872.176 506.959 875.713 502.587 C 896.259 477.189 892.539 435.433 926.493 421.662 C 930.793 423.858 935.06 426.002 938.708 429.223 C 943.823 433.74 961.254 457.085 966.134 455.316 C 971.277 453.451 974.272 445.822 976.138 441.065 C 980.581 429.744 983.327 417.406 985.571 405.459 C 990.289 380.336 993.214 332.058 1019.95 320.115 C 1024.17 318.23 1028.52 318.145 1032.77 320.012 C 1046.16 325.894 1056.75 345.095 1061.33 358.335 C 1066.62 373.622 1069.06 391.424 1067.96 407.566 C 1067.37 416.388 1065.92 425.588 1066.42 434.418 C 1066.57 437.069 1066.76 439.41 1068.92 441.102 C 1076.29 438.804 1085.89 417.87 1089.71 410.488 C 1115.47 360.716 1136.16 253.975 1195.76 235.707 C 1203.37 233.372 1212.02 232.819 1219.19 236.849 C 1224.67 239.934 1228.05 245.098 1229.62 251.114 C 1234.17 268.572 1214.06 317.403 1226.88 325.469 C 1232.24 325.096 1236.13 321.079 1239.49 317.213 C 1251.22 303.747 1256.21 284.527 1259.44 267.431 C 1265.44 267.787 1271.47 268.002 1277.41 268.914 C 1306.28 250.673 1310.59 201.885 1357.99 204.646 L 1359.12 205.59 C 1365.36 210.886 1368.95 216.031 1369.59 224.443 C 1369.98 229.508 1368.87 234.721 1367.88 239.662 C 1369.98 240.745 1371.4 240.302 1373.58 239.615 C 1381.49 237.127 1389.49 230.258 1396.45 225.774 C 1410.76 216.546 1441.45 197.56 1458.78 205.993 C 1463.21 208.146 1466.3 211.701 1467.87 216.364 C 1474.76 236.815 1445.3 284.03 1463.7 293.591 C 1473.83 298.857 1490.7 292.854 1501.74 291.857 C 1506.11 294.61 1510.2 296.967 1511.32 302.368 C 1513.05 310.741 1507.99 319.227 1503.29 325.754 C 1498.24 332.66 1492.64 339.143 1486.53 345.138 C 1477.71 353.652 1450.53 372.321 1451.33 385.446 C 1451.48 387.765 1453.41 390.001 1455.28 391.251 C 1471.17 401.878 1526.42 402.507 1529.37 418.015 C 1530.47 423.78 1526.67 429.7 1523.38 434.066 C 1498.41 467.245 1448.37 488 1408.94 497.827 C 1392.18 502.005 1369.65 502.281 1356.31 513.967 C 1357.38 517.904 1358.35 522.006 1360.8 525.347 C 1365.55 531.819 1371.79 537.415 1378.02 542.409 C 1392.02 553.623 1444.09 585.55 1432.22 607.86 C 1427 617.66 1408.86 623.223 1398.7 625.813 C 1381.11 630.3 1362.86 631.61 1344.81 629.682 C 1336.35 628.702 1327.74 627.424 1319.46 625.399 C 1303.16 621.415 1235.31 598.999 1225.58 613.804 C 1224.23 615.861 1224.37 618.625 1224.94 620.929 C 1226.09 625.573 1230.03 630.992 1232.59 634.995 C 1244.72 653.976 1256.62 668.543 1255.01 692.266 C 1248.11 700.347 1242.07 704.361 1231.16 705.134 C 1176.17 709.024 1124.06 675.571 1084.99 640.412 C 1071.98 628.699 1053.21 605.851 1033.93 606.461 C 1031.23 606.547 1028.68 607.297 1026.79 609.337 C 1022.63 613.816 1023.14 622.589 1023.99 628.158 C 1025.92 640.951 1034.8 663.18 1025.93 674.805 C 1023.24 678.331 1019.08 679.9 1014.77 680.21 C 1001.35 681.177 988.6 672.644 979.106 663.949 C 961.699 648.005 936.973 613.25 910.729 613.358 C 906.861 613.374 903.608 614.713 901.065 617.678 C 892.824 627.287 900.997 642.107 884.125 643.768 C 880.514 644.124 877.245 643.885 873.898 642.46 C 860.121 636.595 847.287 626.857 834.286 619.374 C 818.465 610.389 802.594 601.493 786.674 592.684 C 778.596 588.127 769.121 583.794 762.085 577.727 C 760.722 576.552 759.426 575.312 758.144 574.049 C 729.109 570.689 700.205 569.74 671.32 564.312 C 653.375 560.939 636.315 554.576 618.552 550.502 C 617.502 555.669 616.425 560.829 615.32 565.984 C 650.994 594.839 684.584 627.118 716.981 659.63 C 733.539 676.247 749.511 695.176 767.46 710.21 C 777.856 718.919 791.999 724.752 803.847 731.35 C 861.136 763.251 932.384 799.685 998.033 808.67 L 999.239 808.207 C 1011.43 803.417 1031.52 793.584 1042.59 786.542 C 1055.99 778.019 1084.95 746.293 1101.7 754.071 C 1116.36 760.874 1111.98 784.853 1139.86 775.798 C 1152.89 771.564 1165.45 763.823 1176.95 756.424 C 1190.93 747.429 1219.42 722.474 1237.9 731.179 C 1241.63 732.936 1244 736.476 1245.28 740.289 C 1248.2 748.987 1242.62 769.15 1250.44 774.471 C 1254.1 776.962 1259.46 775.712 1263.32 774.463 C 1296.97 763.578 1339.27 720.971 1368.73 699.097 C 1384.1 687.575 1400.83 678.003 1418.56 670.6 C 1430.11 665.848 1445.34 661.693 1457.17 667.619 C 1461.39 669.736 1464.21 673.213 1465.49 677.757 C 1471.81 700.205 1452.32 739.066 1442.27 759.102 C 1436.9 769.808 1429.81 781.264 1427.31 793.031 C 1425.98 799.326 1426.13 806.591 1432.04 810.511 C 1438.27 814.643 1449.88 811.871 1456.61 809.795 C 1474.39 804.311 1490.7 794.207 1506.71 784.968 C 1550.49 759.703 1594.49 736.314 1646.54 735.756 C 1659 735.622 1673.69 735.031 1685.1 740.714 C 1691.19 743.752 1698.11 748.284 1700.34 755.092 C 1702.84 762.752 1699.82 770.715 1696.14 777.422 C 1681.75 803.661 1653.79 830.008 1644.62 857.981 C 1665.57 863.636 1682.71 862.502 1704.17 861.885 C 1752.38 860.499 1792.96 863.933 1835.09 889.604 C 1847.16 896.96 1862.74 908.143 1869.87 920.601 C 1870.97 922.516 1870.68 922.914 1870.6 925.009 C 1861.72 941.816 1768.75 961.052 1769.81 975.545 C 1780.77 984.89 1802.93 987.713 1816.6 991.854 C 1860.6 1005.18 1922.13 1036.32 1939.35 1081.95 L 1937.76 1082.36 C 1926.15 1085.23 1893.22 1084.4 1887.32 1095.15 C 1884.9 1099.56 1886.01 1104.76 1887.84 1109.15 C 1898.05 1133.73 1920.49 1151.29 1932.76 1174.33 C 1934.47 1177.54 1935.32 1179.98 1934.69 1183.64 C 1928.59 1192.55 1918.04 1191.09 1912.84 1202.79 C 1913.53 1207.58 1914.21 1212.45 1915.42 1217.15 C 1918.63 1229.61 1933.93 1270.56 1925.9 1282.13 C 1924.07 1284.76 1921.85 1286.55 1918.65 1287.04 C 1910.54 1288.27 1901.5 1287.09 1893.22 1287.55 C 1876.87 1288.45 1851.45 1296.3 1837.31 1284.91 C 1828.73 1278.01 1814.59 1261.07 1802.8 1262.57 C 1799.06 1263.05 1796.13 1265.21 1794.07 1268.3 C 1786.63 1279.48 1789.38 1307.58 1774.28 1311.31 C 1765.13 1313.57 1755.12 1307.3 1747.81 1302.45 C 1736.26 1294.78 1725.69 1286.26 1715.98 1276.35 C 1701.42 1261.5 1680.26 1231.82 1666.23 1221.11 C 1662.11 1217.96 1656.18 1214.58 1650.77 1216.01 C 1647.16 1216.96 1644.81 1220.95 1643.39 1224.12 C 1635.02 1242.91 1638.93 1271.67 1616.4 1281.72 C 1614.61 1282.52 1612.72 1283.13 1610.86 1283.74 C 1580.65 1276.02 1560.06 1246.23 1544.95 1220.52 C 1538 1208.69 1531.97 1195.84 1527.05 1183.04 C 1522.54 1171.31 1512.85 1126.79 1500.75 1123.34 C 1498.17 1122.61 1495.6 1123.46 1493.53 1125.02 C 1472.97 1140.58 1481.9 1198.27 1446.87 1195.82 C 1436.03 1195.06 1426.6 1186.06 1420.01 1178.05 C 1407.56 1162.94 1400.44 1144.56 1396.24 1125.63 C 1394.2 1116.41 1393.02 1107 1392.04 1097.61 C 1389.42 1072.34 1390.54 1039.04 1373.43 1018.55 C 1371.15 1015.82 1367.6 1012.53 1363.8 1012.5 C 1360.2 1012.49 1357.19 1015.39 1355.15 1018.06 C 1340.48 1037.22 1344.29 1087.53 1315.43 1093.21 C 1309.08 1094.46 1302.93 1091.97 1297.79 1088.36 C 1255.95 1058.95 1276.94 988.334 1240.17 955.705 C 1234.24 950.437 1227.62 947.118 1219.53 948.547 C 1194.82 952.908 1184.47 998.761 1162.23 984.87 C 1133.16 966.71 1139.9 895.229 1106.06 891.82 C 1104.44 891.657 1102.82 891.446 1101.2 891.266 C 1091.17 895.792 1082.2 903.258 1071.86 906.614 C 1070.85 906.94 1069.86 907.312 1068.86 907.652 C 1039.12 898.406 1012.27 843.63 987.865 821.68 C 922.467 805.066 857.834 783.757 799.356 749.551 C 812.908 763.971 824.877 779.838 837.108 795.378 C 871.744 839.384 905.25 885.682 932.938 934.392 C 940.3 947.345 946.892 960.886 953.056 974.443 C 957.059 983.25 960.516 993.178 965.741 1001.32 C 971.191 1009.8 978.415 1017.24 984.897 1024.94 C 994.929 1036.86 1004.82 1049.17 1013.98 1061.78 C 1026.97 1079.68 1038.06 1098.8 1048.31 1118.39 C 1052.89 1127.16 1056.87 1136.29 1061.7 1144.92 L 1057.61 1146.49 C 1052.67 1140.31 1046.85 1142.71 1042.04 1136.72 C 1035.2 1128.22 1030.17 1117.72 1024.16 1108.58 C 1010.49 1087.78 994.894 1066.34 977.816 1048.29 C 984.839 1071.86 987.714 1096.73 989.554 1121.21 C 991.887 1152.25 989.118 1181.43 982.689 1211.73 C 981.388 1217.87 980.477 1226.7 976.38 1231.47 L 974.264 1231.15 C 965.391 1220.32 969.424 1196.92 970.134 1183.9 C 975.883 1078.45 940.039 977.219 881.07 890.897 C 868.699 872.788 855.72 854.764 841.085 838.404 C 839.911 877.748 830.223 954.355 816.78 990.619 C 812.627 1001.82 812.026 994.479 804.588 997.96 C 799.471 1000.96 798.61 1000.85 792.637 1000.45 C 795.77 999.711 798.65 998.955 801.609 997.679 L 801.094 996.621 C 798.085 995.652 795.483 995.198 792.306 995.099 C 790.265 995.035 789.022 995.003 787.026 994.463 L 789.366 992.792 C 794.266 992.998 798.753 994.075 803.503 995.182 C 814.227 952.641 831.191 859.985 822.155 817.827 C 819.992 807.738 811.018 798.238 804.923 790.122 C 762.505 733.651 712.187 684.558 660.347 636.816 C 644.337 622.072 627.439 604.687 608.945 593.196 C 603.192 607.433 594.887 623.477 586.11 636.057 C 583.513 636.766 582.331 635.463 580.018 634.277 L 578.702 633.292 C 581.788 616.427 590.895 597.513 595.748 580.458 C 588.663 572.763 579.432 566.872 571.12 560.556 C 552.591 546.531 533.9 532.72 515.052 519.126 C 487.299 498.885 459.773 478.142 431.227 459.026 C 380.222 424.87 327.693 393.011 276.69 358.843 C 238.812 332.929 201.763 305.821 165.601 277.561 C 159.801 319.872 155.373 355.283 166.283 397.775 C 164.987 397.037 165.44 397.451 164.509 396.312 C 162.675 394.071 161.617 392.774 158.889 391.504 C 156.966 386.505 156.927 381.749 153.562 377.273 C 151.979 377.58 151.623 378.748 150.666 379.985 L 150.182 377.881 L 150.944 378.176 C 149.524 375.905 149.511 374.253 149.206 371.663 C 148.735 359.628 147.183 347.674 146.609 335.65 C 145.531 313.081 147.757 287.735 153.537 265.991 C 97.0324 221.866 45.7624 170.165 0 115.07 L 0 40.7889 L 0 0 z"/>
<path transform="translate(0,0)" fill="rgb(252,251,243)" d="M 893.827 0 L 938.14 0 C 926.919 7.12096 903.079 18.6777 899.522 32.5161 C 898.715 35.6578 899.306 38.5649 901.113 41.2046 C 906.182 48.6079 916.649 51.2363 925.019 52.3608 C 938.443 54.1646 993.09 52.0472 999.98 60.9907 C 1001.54 63.0202 1001.69 64.4467 1001.27 66.9484 C 999.948 74.7339 990.2 79.434 992.507 88.2671 C 1004.34 104.736 1045.78 104.267 1063.57 133.578 L 1062.53 134.758 C 1050.03 148.807 1029.64 160.22 1012.28 166.997 C 1010.69 167.615 1007.16 168.653 1007.39 170.859 C 1007.89 175.596 1016.57 184.227 1019.18 189.056 C 1007.47 197.417 995.102 199.543 981.018 200.925 C 968.565 202.147 932.325 197.964 929.331 214.079 C 928.478 218.673 930.75 223.135 933.505 226.664 C 940.374 235.462 963.816 248.901 961.528 261.046 C 960.83 264.753 957.636 267.174 954.499 268.836 C 938.797 277.154 903.129 280.945 885.515 278.501 C 870.711 276.447 814.025 254.32 807.509 271.42 C 805.247 277.359 808.575 284.638 811.421 289.754 C 818.09 301.742 839.267 325.286 835.975 338.772 C 835.116 342.293 833.263 344.091 830.169 345.864 C 813.664 355.325 788.898 353.614 771.249 348.373 C 752.394 342.774 732.853 331.538 716.693 320.491 C 706.556 313.562 696.999 305.819 687.437 298.129 C 674.373 287.622 642.523 256.949 624.723 266.757 C 621.831 268.35 620.066 270.476 619.39 273.697 C 614.251 298.159 649.135 321.485 635.097 349.04 C 629.57 353.348 624.681 355.551 617.937 357.317 C 608.16 355.132 600.106 352.775 591.98 346.567 C 571.396 330.84 528.505 250.575 497.696 270.225 C 483.645 279.187 476.512 317.64 457.679 314.974 C 442.961 312.891 430.186 280.432 415.025 271.546 C 389.392 256.521 370.23 285.063 348.044 273.815 C 334.434 266.915 323.525 252.779 312.733 242.237 C 306.338 235.99 299.452 230.321 292.41 224.825 C 320.391 226.034 333.583 224.445 354.213 246.782 C 357.64 250.492 360.698 254.574 363.823 258.54 C 358.157 244.897 347.777 234.617 335.476 226.71 C 371.455 224.1 399.213 218.805 429.067 244.319 C 437.026 251.12 444.111 259.213 449.299 268.332 C 449.949 269.475 455.954 281.228 456.548 281.205 C 457.508 275.289 448.643 262.59 445.129 257.643 C 433.592 241.404 417.7 228.557 398.324 223.27 C 412.231 221.868 426.119 220.287 439.985 218.53 C 452.502 216.844 479.033 210.552 490.572 212.688 C 505.449 215.441 520.051 226.63 531.601 235.765 L 532.434 235.045 C 535.064 235.304 544.637 244.707 547.938 246.912 C 544.27 243.549 539.461 239.003 537.1 234.682 C 536.82 234.17 536.564 233.644 536.295 233.125 C 529.851 224.399 517.28 217.935 508.924 210.754 C 510.087 210.451 511.241 210.154 512.418 209.907 C 532.439 205.708 572.041 196.651 590.435 197.066 C 602.575 197.34 614.75 201.423 626.166 205.239 C 677.008 222.233 715.492 257.443 756.122 290.818 C 766.927 299.693 777.73 309.84 789.445 317.403 L 790.577 316.996 C 790.38 316.727 790.202 316.444 789.987 316.19 C 785.753 311.177 763.345 293.692 756.692 288.03 C 720.27 257.031 657.554 198.262 610.065 193.001 C 638.355 186.239 670.654 178.483 699.575 176.392 C 748.003 172.892 797.026 187.152 839.781 209.216 C 853.038 216.086 866.174 223.186 879.184 230.513 C 887.956 235.465 896.995 241.661 906.438 245.146 L 906.608 244.464 C 867.625 220.021 829.646 192.723 785.185 179.08 C 772.364 175.146 759.186 171.843 745.886 170.018 C 740.135 169.229 730.125 170.154 725.297 167.614 C 738.543 164.261 751.869 161.234 765.263 158.534 C 797.558 151.155 840.195 140.008 872.786 144.2 C 889.748 146.181 905.91 149.513 922.346 154.168 C 936.814 158.266 958.385 172.327 973.063 170.592 C 966.932 167.83 960.4 167.457 954.265 165.103 C 945.131 161.599 934.752 155.391 924.291 151.396 C 911.909 146.667 898.928 144.353 886.279 140.514 C 898.229 139.351 910.25 140.384 922.236 139.124 C 920.673 138.982 919.088 138.882 917.534 138.672 C 915.7 138.424 914.092 138.196 912.237 138.225 L 910.344 138.265 C 914.112 137.834 916.589 137.997 919.348 135.281 C 903.821 134.031 888.563 133.635 873.053 135.454 C 873.21 135.129 873.321 134.777 873.523 134.479 C 875.476 131.606 937.85 102.633 946.19 97.4966 C 941.883 96.0703 912.542 112.064 907.177 114.708 C 893.192 121.603 878.93 128.026 863.828 132.112 C 847.246 136.598 829.339 138.109 812.343 140.641 C 795.962 143.082 779.751 146.401 763.49 149.524 C 748.558 152.995 733.652 156.584 718.776 160.289 C 732.371 151.885 745.547 143.633 757.802 133.297 C 777.664 121.093 800.571 84.4948 818.246 66.6061 C 841.962 42.6041 870.737 24.6206 893.827 0 z"/>
<path transform="translate(0,0)" fill="rgb(90,100,92)" d="M 531.601 235.765 L 532.434 235.045 C 535.064 235.304 544.637 244.707 547.938 246.912 C 544.27 243.549 539.461 239.003 537.1 234.682 C 536.82 234.17 536.564 233.644 536.295 233.125 C 552.811 247.851 601.887 304.936 608.018 324.061 C 597.146 312.183 586.29 295.409 575.58 282.408 C 560.943 264.638 547.29 251.989 531.601 235.765 z"/>
<path transform="translate(0,0)" fill="rgb(90,100,92)" d="M 919.348 135.281 C 935.585 134.181 951.898 134.003 968.153 133.077 C 984.079 132.169 999.868 130.497 1015.73 129.356 C 1018.06 129.189 1022.44 128.999 1024.16 130.383 C 1015.48 133.711 934.236 139.944 922.236 139.124 C 920.673 138.982 919.088 138.882 917.534 138.672 C 915.7 138.424 914.092 138.196 912.237 138.225 L 910.344 138.265 C 914.112 137.834 916.589 137.997 919.348 135.281 z"/>
<path transform="translate(0,0)" fill="rgb(252,251,243)" d="M 0 0 L 547.978 0 C 536.877 8.25681 527.533 17.3921 521.187 29.8665 C 512.322 47.2914 496.52 143.674 471.005 137.827 C 467.806 137.094 464.874 134.171 463.543 131.286 C 458.194 119.701 463.498 112.04 454.587 98.635 C 451.287 97.1465 448.005 95.5898 444.605 94.3435 C 433.129 98.1056 427.226 105.131 421.886 115.683 C 411.463 136.279 404.503 160.701 381.044 170.095 C 373.115 162.706 364.434 151.203 352.557 151.681 C 345.44 151.967 339.681 155.173 335.061 160.479 C 329.726 166.604 325.994 174.324 321.229 180.926 C 309.214 197.573 288.927 208.729 268.5 210.507 C 256.523 211.55 244.445 209.111 232.749 206.817 C 191.113 198.65 154.806 183.092 116.638 165.199 C 106.362 160.382 92.9603 155.798 84.4105 148.49 C 59.0541 126.814 18.1734 70.175 0 40.7889 L 0 0 z"/>
<path transform="translate(0,0)" fill="rgb(252,251,243)" d="M 672.856 0 L 705.242 0 L 707.969 0 L 890.328 0 L 893.827 0 C 870.737 24.6206 841.962 42.6041 818.246 66.6061 C 800.571 84.4948 777.664 121.093 757.802 133.297 C 748.218 133.359 728.306 154.527 722.958 151.356 C 693.017 167.723 683.107 166.622 650.64 172.649 C 638.642 174.876 626.352 178.267 614.186 179.237 C 613.132 177.904 611.647 176.784 610.381 175.644 C 593.463 189.332 522.979 190.624 498.214 197.794 C 506.566 186.445 516.135 176.47 523.561 164.339 C 544.684 129.832 559.554 73.9939 557.602 33.3276 L 556.747 32.8717 C 553.969 44.659 554.229 57.5014 552.04 69.4709 C 543.153 118.069 525.412 161.353 490.022 196.51 C 464.621 203.247 433.54 205.837 407.203 208.423 C 430.102 181.018 438.705 162.297 445.72 127.134 C 441.366 136.326 438.8 146.548 435.442 156.148 C 428.269 176.652 414.056 196.166 396.885 209.42 C 376.495 211.633 355.731 212.377 335.252 213.674 C 348.901 198.835 354.175 188.557 361.755 170.225 L 360.614 171.54 C 354.332 178.648 350.821 188.195 345.95 196.331 C 342.126 202.717 337.239 208.091 332.284 213.603 C 329.325 214.044 326.499 214.457 323.503 214.191 C 312.065 213.177 299.535 215.043 288.422 212.099 L 287.835 210.673 C 289.494 208.577 305.698 201.54 312.533 194.89 C 323.167 184.544 329.183 168.851 338.644 160.572 C 345.825 154.288 352.044 154.804 360.961 155.278 C 366.984 159.622 371.641 166.959 378.362 170.07 C 404.175 182.017 422.173 103.168 441.226 97.8053 C 444.673 96.835 447.927 97.2896 450.883 99.2861 C 458.257 104.267 458.248 119.636 459.956 127.57 C 460.862 131.78 462.816 137.958 467.012 139.991 C 468.998 140.953 471.35 140.909 473.433 140.322 C 506.201 131.074 511.646 54.7574 526.325 27.4599 C 531.514 17.8114 540.791 4.81294 551.835 1.93769 C 559.438 -0.0417703 569.545 0.981884 576.188 5.34197 C 599.203 20.4465 587.729 63.9728 592.841 87.0906 C 594.329 93.8169 597.001 101.231 603.295 104.877 C 606.173 106.545 608.738 106.965 611.996 106.037 C 628.1 101.447 648.127 50.062 655.238 35.0607 C 660.833 23.2571 666.969 11.6638 672.856 0 z"/>
<path transform="translate(0,0)" fill="rgb(252,251,243)" d="M 705.242 0 L 707.969 0 L 890.328 0 L 893.827 0 C 870.737 24.6206 841.962 42.6041 818.246 66.6061 C 800.571 84.4948 777.664 121.093 757.802 133.297 C 748.218 133.359 728.306 154.527 722.958 151.356 C 693.017 167.723 683.107 166.622 650.64 172.649 C 638.642 174.876 626.352 178.267 614.186 179.237 C 613.132 177.904 611.647 176.784 610.381 175.644 C 619.648 168.045 628.674 160.256 636.746 151.37 C 670.735 113.953 707.685 51.228 705.242 0 z"/>
<path transform="translate(0,0)" fill="rgb(90,100,92)" d="M 890.328 0 L 893.827 0 C 870.737 24.6206 841.962 42.6041 818.246 66.6061 C 800.571 84.4948 777.664 121.093 757.802 133.297 C 748.218 133.359 728.306 154.527 722.958 151.356 C 725.969 148.614 730.452 146.309 733.888 143.94 C 743.706 137.171 753.521 130.491 762.189 122.249 C 785.561 100.026 804.483 74.1744 828.622 52.5766 C 848.743 34.5738 871.898 19.7701 890.328 0 z"/>
<path transform="translate(0,0)" fill="rgb(90,100,92)" d="M 705.242 0 L 707.969 0 C 707.064 55.633 671.148 126.167 631.088 165.091 C 625.788 170.241 620.141 174.873 614.186 179.237 C 613.132 177.904 611.647 176.784 610.381 175.644 C 619.648 168.045 628.674 160.256 636.746 151.37 C 670.735 113.953 707.685 51.228 705.242 0 z"/>
<path transform="translate(0,0)" fill="rgb(252,251,243)" d="M 571.635 0 L 669.633 0 C 660.406 16.0297 653.57 32.2981 645.909 49.0507 C 640.682 60.4813 623.034 100.656 611.085 103.772 C 608.435 104.463 606.829 104.116 604.53 102.663 C 591.009 94.1145 594.313 56.5248 593.723 43.0093 C 593.415 35.9514 592.604 28.417 590.977 21.5345 C 588.635 11.6201 579.842 4.99951 571.635 0 z"/>
<path transform="translate(0,0)" fill="rgb(252,251,243)" d="M 1115.38 776.385 C 1119.1 777.711 1122.99 779.42 1126.96 779.704 C 1164.55 782.388 1200.31 730.736 1231.39 732.417 C 1234.74 732.598 1237.82 733.836 1240.01 736.442 C 1245.72 743.258 1243.42 753.92 1243.16 762.021 C 1243 766.732 1243.57 773.665 1247.5 776.96 C 1265.74 792.257 1347.04 719.836 1362.33 707.636 C 1370.32 701.191 1378.68 695.229 1387.38 689.783 C 1407.49 677.314 1426.84 667.728 1450.83 668.138 C 1456.91 671.493 1459.37 674.522 1462.77 680.599 C 1463.25 695.278 1460.14 708.536 1455.16 722.313 C 1447.21 744.309 1431.33 769.192 1425.32 789.163 C 1423.7 794.535 1422.44 800.741 1424.03 806.279 C 1425.01 809.721 1427.35 811.793 1430.46 813.344 C 1456.55 826.325 1520.01 779.87 1544.63 766.899 C 1559.45 759.091 1575.2 753.084 1591.16 748.022 C 1615.76 740.218 1663.06 731.661 1686.98 744.728 C 1691.77 747.347 1695.72 751.234 1697.16 756.628 C 1698.66 762.281 1697.23 768.241 1694.91 773.46 C 1684.83 796.193 1658.25 822.743 1646.05 846.471 C 1643.81 850.834 1642.59 854.172 1644.11 858.94 C 1653.46 870.28 1698.03 864.68 1713.22 864.543 C 1725.13 864.435 1737.3 864.712 1749.19 865.523 C 1766.15 866.681 1783.54 869.852 1799.55 875.635 C 1820.88 883.345 1858.24 902.718 1868.21 924.17 C 1864.55 936.172 1779.82 954.323 1768.79 971.811 C 1767.26 974.232 1767.35 974.855 1767.83 977.485 C 1775.9 986.053 1818.48 995.214 1831.92 1000.19 C 1871.81 1014.98 1917.29 1040.07 1935.9 1080.47 C 1921.92 1083.24 1905.66 1081.66 1892.58 1087.58 C 1886.43 1090.36 1884.78 1093.36 1882.37 1099.51 C 1890.16 1131.89 1920.38 1153.04 1933.15 1183.07 C 1927.06 1186.33 1920.96 1189.28 1914.62 1192.03 C 1904.82 1211.78 1921.1 1240.56 1924.31 1261.82 C 1925.4 1268.98 1925.8 1276.41 1921.31 1282.51 C 1913.72 1286.81 1903.32 1283.43 1894.9 1284.01 C 1883.85 1284.78 1872.86 1287.2 1861.84 1288.33 C 1843.64 1290.19 1834 1277.29 1821.2 1267.13 C 1815.69 1262.76 1808.22 1258.38 1800.88 1259.46 C 1783.98 1261.96 1787.43 1292.69 1779.43 1303.58 C 1777.47 1306.25 1774.9 1307.95 1771.52 1308.26 C 1764.9 1308.88 1757.06 1304.48 1751.47 1301.18 C 1726.3 1286.31 1709.09 1264.98 1690.8 1242.85 C 1684.48 1235.22 1678.08 1226.64 1670.36 1220.41 C 1665.14 1216.2 1658.32 1212.18 1651.32 1213.19 C 1634.18 1215.66 1637.7 1254.59 1624.2 1272.1 C 1620.97 1276.28 1616.55 1280.28 1611.03 1280.69 C 1584.5 1282.65 1545.34 1218.02 1536.09 1197.17 C 1528.36 1179.77 1517.34 1132.65 1505.05 1122.05 C 1502.68 1120 1499.1 1119.17 1496.02 1119.64 C 1480.55 1121.99 1473.84 1170.88 1464.95 1183.61 C 1461.88 1188.01 1457.59 1191.7 1452.14 1192.55 C 1444.44 1193.75 1436.66 1189.65 1430.8 1185.03 C 1395.05 1156.82 1397.9 1101.39 1392.12 1061.52 C 1390.16 1047.98 1384.91 1021.33 1372.77 1013.03 C 1369.29 1010.66 1364.15 1009.68 1360.06 1010.75 C 1342.56 1015.35 1340.4 1063.23 1330.05 1078.62 C 1325.18 1085.85 1320.14 1089.03 1311.71 1090.72 L 1310.27 1091 C 1307.49 1090.2 1304.55 1089.25 1301.98 1087.89 C 1272.77 1072.45 1270.66 1016.55 1263.01 988.755 C 1258.94 973.945 1250.43 956.91 1236.31 949.419 C 1231.17 946.729 1225.37 945.58 1219.59 946.11 C 1194.52 948.224 1192.98 978.124 1170.59 984.591 L 1169.28 984.956 C 1132.42 967.179 1147.44 909.285 1113.47 888.918 C 1101.21 888.253 1094.73 889.599 1084.13 895.87 C 1083.77 873.434 1079.18 854.997 1066.47 836.364 C 1098.56 841.321 1133.92 844.254 1158.18 868.55 C 1180.1 890.502 1180.9 911.641 1180.67 940.603 L 1181.17 940.802 C 1183.15 930.771 1183.86 920.157 1182.37 910.012 C 1178.16 881.477 1161.53 864.676 1139.35 848.308 C 1184.73 858.276 1215.9 849.641 1253.35 884.422 C 1253.69 884.461 1254.03 884.463 1254.35 884.541 C 1259.47 885.757 1263.19 895.507 1266.87 899.469 C 1267.33 899.959 1267.71 900.519 1268.12 901.044 C 1265.97 896.493 1260.53 889.899 1260.39 885.049 C 1257.68 879.491 1251.88 873.825 1247.92 868.965 C 1272.53 877.18 1319.45 882.594 1339.06 896.206 C 1392.92 933.588 1427.61 1025.27 1437.52 1088.05 C 1439.96 1103.5 1441.56 1119.23 1442.77 1134.82 C 1443.24 1140.98 1442.54 1147.13 1443.69 1153.21 C 1446.46 1146.54 1443.08 1116.01 1442.2 1107.16 C 1437.56 1060.47 1415.88 975.131 1390.62 935.77 C 1379.99 919.211 1367.45 906.751 1352.36 894.41 C 1376.94 903.44 1434.02 912.133 1451.16 926.039 C 1502.57 967.754 1553.18 1062.54 1575.34 1124.9 C 1584.59 1150.93 1590.79 1176.18 1596.06 1203.26 C 1597.7 1211.67 1600.66 1220.41 1601.46 1228.9 C 1601.69 1231.32 1601.22 1230.18 1602.71 1232.11 C 1603.54 1230.41 1602.67 1227.5 1602.47 1225.62 C 1601.61 1217.61 1599.44 1210.18 1598.07 1202.29 C 1593.94 1178.34 1589.35 1155.43 1582.4 1132.06 C 1565.15 1074 1523.69 980.715 1483.53 936.64 C 1524.42 951.021 1599.43 983.59 1628.6 1015.76 C 1671.6 1063.19 1696.43 1131.11 1706.97 1193.39 C 1708.77 1204.01 1711.95 1216.4 1711.3 1227.07 C 1711.27 1227.44 1711.24 1227.81 1711.2 1228.18 L 1712.83 1229.97 L 1713.09 1229.65 C 1714.05 1217.36 1710.84 1205 1709.07 1192.91 C 1701.01 1138.03 1682.67 1065.49 1646.36 1022.27 C 1666.42 1033.84 1690.25 1056.13 1708.32 1071.46 C 1723.01 1083.92 1746.18 1101.53 1757.48 1116.57 C 1762.01 1122.59 1764.13 1131.06 1766.04 1138.24 C 1775.23 1172.81 1774.66 1204.05 1777.53 1239.09 L 1778.27 1238.7 C 1778.13 1214.63 1778.94 1190.94 1776.44 1166.93 C 1775.2 1155 1771.72 1143.38 1770.48 1131.47 L 1770.4 1130.59 C 1786.86 1151.51 1810.37 1166.65 1825.1 1188.93 C 1830.93 1197.74 1856.41 1254.9 1859.44 1256.91 L 1859.81 1256.02 C 1851.28 1233.75 1839.54 1213.24 1829.71 1191.59 C 1849.91 1210.06 1869.89 1228.76 1889.65 1247.7 C 1894.97 1252.82 1906.1 1266.61 1911.58 1269.59 C 1912.08 1269.85 1912.67 1269.89 1913.21 1270.03 L 1912.7 1270.42 L 1913.29 1270.71 L 1913.04 1269.59 L 1912.06 1269.81 L 1912.26 1268.5 C 1892.77 1243.99 1859.83 1216.96 1836.47 1194.89 C 1820.33 1179.64 1805.52 1162.61 1789.68 1146.94 C 1817.46 1157.59 1869.69 1175.06 1898.78 1174.77 C 1890.94 1171.63 1881.68 1171.62 1873.4 1169.75 C 1850.72 1164.61 1814.7 1155.35 1794.29 1145.47 C 1783.35 1140.18 1771.53 1121.92 1762.55 1112.8 C 1736.86 1086.89 1709.94 1062.23 1681.89 1038.91 C 1728.63 1050.17 1775 1057.92 1822.96 1061.33 C 1828.97 1061.76 1837.49 1063.73 1843.25 1062.46 C 1795.88 1056.58 1710.05 1048.76 1669.12 1027.07 C 1656.6 1020.43 1641.96 1005.18 1629.6 996.402 C 1619.61 989.306 1609.53 982.064 1599.07 975.676 C 1589.05 969.556 1578.54 964.105 1568.8 957.544 L 1567.84 956.887 C 1610.52 954.134 1657.53 938.779 1699.61 929.61 C 1730.07 922.971 1758.14 920.867 1788.53 916.424 C 1790.62 916.118 1795.01 915.663 1796.23 914 C 1766.99 913.935 1732.42 920.703 1703.39 925.656 L 1617.53 939.887 C 1598.97 943.05 1565.69 950.796 1548.19 948.21 C 1533.95 946.104 1518.01 935.517 1504.43 930.031 C 1487.26 923.094 1469.54 917.674 1452.05 911.607 C 1432.5 904.823 1413.19 897.05 1392.89 892.759 C 1464.55 886.184 1540.63 832.214 1602.74 798.414 C 1611.7 793.536 1648.57 776.659 1653.41 771.368 C 1642.28 774.173 1629.7 782.315 1619.32 787.458 C 1581.95 805.968 1545.25 826.517 1507.95 844.787 C 1460.48 868.035 1413.82 880.36 1360.73 879.378 C 1350.75 879.193 1340.5 879.281 1330.61 877.939 C 1307.29 874.777 1267.13 863.63 1244.61 855.908 C 1269.16 849.784 1291.23 841.949 1311.92 827.045 C 1322.22 819.537 1331.85 811.142 1340.68 801.956 C 1352.24 790.142 1424.46 707.076 1425.92 698.029 L 1424.88 698.429 C 1418.64 707.02 1411.31 714.61 1404.58 722.8 C 1374.07 759.949 1340.22 796.938 1298.47 821.667 C 1274.88 835.644 1244.61 847.95 1216.77 848.073 C 1199.18 848.151 1167.15 840.542 1149.58 836.119 C 1156.81 832.193 1164.06 828.287 1170.88 823.691 C 1184.64 814.431 1223.52 783.055 1225.78 765.946 C 1226 764.284 1226.08 764.918 1225.05 763.52 C 1222.57 763.158 1221.76 762.587 1219.81 764.46 C 1215.7 768.409 1212.35 774.366 1208.55 778.779 C 1198.25 790.752 1185.54 800.784 1172.24 809.201 C 1163.76 814.566 1155.12 819.106 1145.9 823.055 C 1121.6 833.465 1109.37 830.031 1084.51 825.857 C 1070.16 823.447 1055.72 821.242 1041.52 818.044 C 1051.44 814.534 1061.78 812.093 1071.2 807.305 C 1084.3 800.652 1093.43 790.884 1098 776.824 C 1086.48 793.914 1075.45 802.056 1056.55 810.015 C 1050.97 812.369 1045.04 814.222 1040.39 818.25 C 1027.33 816.104 1014.06 813.687 1001.42 809.704 C 1015.2 804.246 1030.45 797.565 1043.06 789.775 C 1058.51 780.234 1077.72 754.848 1096.9 756.235 C 1105.75 756.875 1109.65 769.442 1114.7 775.582 C 1114.93 775.853 1115.15 776.118 1115.38 776.385 z"/>
<path transform="translate(0,0)" fill="rgb(90,100,92)" d="M 1253.35 884.422 C 1253.69 884.461 1254.03 884.463 1254.35 884.541 C 1259.47 885.757 1263.19 895.507 1266.87 899.469 C 1267.33 899.959 1267.71 900.519 1268.12 901.044 C 1265.97 896.493 1260.53 889.899 1260.39 885.049 C 1289.21 919.964 1306.4 1007.98 1304.75 1052.81 C 1301.86 1038.17 1301.64 1022.86 1299.49 1008.07 C 1293.35 965.764 1279.73 918.416 1253.35 884.422 z"/>
<path transform="translate(0,0)" fill="rgb(252,251,243)" d="M 1262.18 271.151 C 1265.43 271.447 1268.79 271.867 1272.05 271.831 C 1288.8 271.651 1308.5 234.018 1321.93 221.436 C 1329.6 214.254 1342.99 205.613 1353.99 206.389 C 1357.15 206.612 1359.43 207.875 1361.47 210.259 C 1368.54 218.501 1366.05 232.591 1365.13 242.349 C 1366 243.716 1365.94 244.284 1367.63 244.732 C 1374.45 246.544 1391.99 231.855 1398.16 227.869 C 1411.04 219.561 1438.46 203.411 1454.43 207.543 C 1458.46 208.586 1461.97 211.254 1463.84 215.002 C 1470.53 228.455 1460.94 252.16 1456.99 265.392 C 1454.69 273.125 1451.87 283.05 1456.31 290.533 C 1465.88 306.639 1490.62 292.327 1504.78 296.725 C 1506.59 297.286 1508.61 298.509 1509.35 300.298 C 1510.86 303.953 1509.19 308.278 1507.74 311.734 C 1495.66 340.58 1458.53 358.823 1449.95 378.435 C 1448.55 381.627 1447.37 385.995 1449.16 389.272 C 1457.48 404.482 1503.61 404.437 1518.78 411.268 C 1521.96 412.701 1525.02 414.893 1525.94 418.461 C 1526.78 421.687 1525.53 424.997 1523.96 427.773 C 1505.21 461.003 1447.84 485.077 1412.5 494.114 C 1398.28 497.747 1383.31 498.847 1369.29 503.031 C 1364.07 504.588 1357.08 507.203 1354.8 512.683 C 1345.83 534.188 1422.18 568.902 1430.14 596.797 C 1431.19 600.498 1431.18 604.269 1429.19 607.672 C 1425.01 614.81 1414.06 618.273 1406.58 620.723 C 1381.64 628.888 1355.8 629.483 1330.07 624.798 C 1305.69 620.36 1252.11 599.867 1231.09 606.064 C 1227.51 607.118 1224.66 609.1 1223.05 612.545 C 1217.07 625.322 1245.11 657.552 1250.16 671.463 C 1252.51 677.917 1254.3 686.067 1250.91 692.508 C 1247.99 698.057 1242.24 700.225 1236.47 701.589 C 1197.22 710.859 1132.86 676.892 1103.87 653.038 C 1086.85 639.037 1071.77 620.828 1052.89 609.487 C 1045.73 605.183 1038.3 601.839 1029.82 604.311 C 1008.19 610.615 1033.14 656.126 1024.43 671.011 C 1022.7 673.969 1019.84 676.092 1016.51 676.886 C 996.319 681.839 969.77 649.395 957.103 637.138 C 949.489 629.77 941.317 622.368 932.091 617.056 C 924.711 612.806 914.794 608.838 906.247 611.503 C 890.349 616.462 897.056 628.343 891.577 638.328 C 889.747 639.675 888.378 640.32 886.154 640.663 C 880.015 641.61 875.669 639.673 870.218 637.17 C 857.203 631.195 845.244 621.763 832.762 614.634 C 809.194 601.174 783.083 589.765 760.988 574.093 C 778.271 573.286 795.554 573.079 812.816 571.807 C 828.15 579.309 845.474 590.932 858.166 602.218 C 864.274 607.649 870.221 615.816 877.023 620.001 C 870.627 605.535 839.056 582.238 825.566 571.088 C 846.454 568.149 867.91 567.168 888.915 564.627 C 897.212 568.684 906.168 571.485 914.578 575.356 C 931.338 583.071 948.854 594.887 962.785 606.949 C 968.408 611.817 997.942 644.938 1000.02 645.795 L 999.947 644.542 C 992.734 636.334 986.382 627.368 979.046 619.304 C 958.184 596.369 932.839 578.251 906.26 562.609 C 925.881 559.75 957.095 551.969 975.761 553.035 C 991.045 553.908 1007.09 559.773 1021.44 564.893 C 1090.83 589.656 1150.28 629.356 1211.51 669.391 C 1206.43 659.077 1077.42 581.718 1058.95 572.169 C 1039.58 562.153 1020.13 553.993 999.575 546.711 C 1015.9 543.905 1031.9 541.507 1048.02 537.542 C 1057.69 535.165 1067.42 532.849 1076.98 530.102 C 1086.88 527.259 1097.68 521.743 1107.99 521.596 C 1120.54 521.416 1133.95 525.423 1146.16 528.141 C 1208.62 542.034 1269.98 562.107 1330.4 583.006 C 1338.95 585.966 1368.49 599.116 1374.5 598.848 C 1351.47 586.383 1325.33 578.79 1300.86 569.632 C 1244.06 548.373 1187.44 525.733 1127.6 514.49 C 1154.2 504.908 1178.78 489.958 1205.41 480.974 C 1243.94 467.978 1286.35 463.061 1326.56 457.942 C 1348.51 454.926 1370.49 452.178 1392.51 449.699 C 1399.1 448.999 1458.74 442.738 1460.89 440.246 C 1455.65 439.563 1450.49 441.384 1445.29 441.971 C 1434.08 443.236 1422.66 444.293 1411.41 445.313 C 1349.89 450.895 1288.76 455.323 1227.58 464.358 C 1253.54 450.554 1313.84 407.339 1329.16 383.918 C 1357.6 373.075 1384.46 359.467 1412.08 346.84 C 1424.25 341.277 1437.06 337.669 1448.75 331.168 C 1441.09 331.057 1351.86 368.476 1338.45 373.824 C 1351.84 355.163 1366.99 337.426 1380.99 319.174 C 1395.88 299.758 1409.87 279.435 1423.63 259.196 C 1429.37 250.747 1437.69 240.894 1441.14 231.44 C 1439.72 231.441 1440.41 231.194 1439.36 232.724 C 1415.81 266.89 1389.7 298.243 1363.56 330.395 C 1358.14 337.068 1346.53 354.038 1339.96 358.202 C 1337.69 356.625 1337.5 353.525 1336.73 350.902 L 1335.79 350.489 C 1335.47 346.643 1335.18 342.795 1334.91 338.946 C 1333.8 349.286 1330.89 359.197 1329.68 369.452 C 1310.3 394.226 1250.76 443.828 1223.21 457.653 C 1240.95 429.093 1252.89 399.109 1264.66 367.755 C 1270.05 353.404 1275.81 339.082 1280.34 324.432 C 1271.53 342.155 1264.96 360.396 1257.41 378.628 C 1246.86 404.066 1229.24 444.026 1209.36 462.492 C 1189.09 481.322 1132.85 498.571 1105.2 507.861 L 1100.78 509.345 C 1128.46 476.862 1143.81 439.414 1155.77 398.829 C 1155.38 397.288 1154.97 395.749 1154.57 394.212 C 1153.59 395.783 1153.36 396.497 1152.84 398.219 C 1150.85 404.927 1140.54 434.21 1136.88 437.836 L 1136.33 436.29 C 1127.96 452.649 1119.55 469.343 1109.33 484.635 C 1102.99 494.111 1095.4 502.686 1088.92 512.051 C 1049.94 523.326 1015.62 530.372 976.014 537.822 C 1016.15 495.272 1033.44 433.273 1031.89 375.432 C 1031.7 368.283 1031.73 347 1028.9 341.2 C 1025.39 347.367 1029.61 368.412 1029.96 376.206 C 1030.41 386.299 1028.02 397.915 1026.89 408.043 C 1022.99 442.822 1012.25 479.031 991.364 507.549 C 982.839 519.192 972.829 529.718 963.485 540.699 C 950.952 543.265 905.003 551.939 894.317 551.588 C 893.053 549.099 892.224 549.037 889.7 547.741 C 875.841 558.831 841.402 559.034 823.475 560.389 C 823.887 560.035 824.305 559.689 824.71 559.327 C 835.429 549.738 840.894 534.736 841.526 520.75 C 836.115 535.554 828.488 547.049 821.065 560.697 C 804.861 563.774 788.149 562.466 771.794 561.572 C 783.423 552.959 796.101 538.63 804.512 526.972 C 810.621 518.505 818.176 501.886 826.011 496.185 C 828.405 494.444 831.994 492.513 835.024 493.637 C 841.57 496.066 851.113 513.319 854.781 519.591 C 857.39 518.999 860.237 518.451 862.687 517.357 C 885.277 507.263 892.56 474.028 900.899 453.523 C 906.239 440.394 912.202 430.46 925.714 424.733 C 940.857 431.399 945.406 442.409 956.425 453.098 C 959.575 456.154 962.428 458.352 966.881 458.268 C 987.506 447.548 991.603 374.518 999.516 351.437 C 1004.38 337.264 1011 327.545 1024.69 320.909 C 1027.1 321.672 1029.65 322.41 1031.95 323.456 C 1062 337.085 1065.59 386.76 1064.73 414.678 C 1064.51 421.724 1061.14 432.947 1064.05 439.229 C 1065.16 441.649 1066.16 442.887 1068.63 443.812 C 1072.41 443.326 1074.57 441.587 1076.91 438.716 C 1087.82 425.332 1094.59 407.131 1101.14 391.278 C 1115.16 357.299 1127.86 317.001 1145.97 285.479 C 1154.41 270.795 1166.03 256.406 1179.92 246.552 C 1190.97 238.715 1202.15 235.409 1215.56 237.613 C 1243.25 257.017 1212.23 296.808 1220.52 322.386 C 1221.37 324.991 1222.98 326.909 1225.59 327.887 C 1228.86 329.11 1232.03 328.814 1234.95 326.944 C 1251.01 316.653 1257.51 288.311 1262.18 271.151 z"/>
<path transform="translate(0,0)" fill="rgb(90,100,92)" d="M 1136.33 436.29 C 1138.7 428.188 1142.79 420.026 1145.85 412.101 C 1150.56 399.604 1155 387.003 1159.15 374.309 C 1170.84 339.185 1180.09 300.994 1194.55 267.126 C 1195.05 269.579 1194.27 272.157 1193.63 274.552 C 1190.05 287.922 1184.88 300.619 1180.91 313.816 C 1172.41 342.118 1164.69 370.65 1155.77 398.829 C 1155.38 397.288 1154.97 395.749 1154.57 394.212 C 1153.59 395.783 1153.36 396.497 1152.84 398.219 C 1150.85 404.927 1140.54 434.21 1136.88 437.836 L 1136.33 436.29 z"/>
<path transform="translate(0,0)" fill="rgb(90,100,92)" d="M 928.871 445.325 C 931.498 479.25 923.654 517.811 900.985 544.193 C 898.809 546.699 896.586 549.164 894.317 551.588 C 893.053 549.099 892.224 549.037 889.7 547.741 C 922.772 514.549 922.052 488.705 928.871 445.325 z"/>
<path transform="translate(0,0)" fill="rgb(90,100,92)" d="M 1334.91 338.946 C 1334.96 328.901 1340.14 248.767 1341.15 245.701 C 1342.78 260.145 1341.73 340.027 1336.73 350.902 L 1335.79 350.489 C 1335.47 346.643 1335.18 342.795 1334.91 338.946 z"/>
<path transform="translate(0,0)" fill="rgb(252,251,243)" d="M 993.05 823.163 C 1009.52 826.979 1049.42 830.151 1060.81 838.924 C 1073.82 848.944 1079.65 869.261 1081.2 884.923 C 1081.75 890.487 1082.79 895.702 1079.21 900.132 C 1075.34 902.292 1070.93 903.213 1066.69 904.392 C 1045.11 894.282 1026.65 862.547 1011.3 844.055 C 1005.47 837.032 998.072 830.709 993.05 823.163 z"/>
<path transform="translate(0,0)" fill="rgb(252,251,243)" d="M 560.704 522.812 C 573.774 527.477 585.551 534.876 598.946 538.897 C 599.518 543.512 599.762 548.023 599.895 552.666 C 593.338 550.553 567.35 528.46 560.704 522.812 z"/>
<path transform="translate(0,0)" fill="rgb(92,121,109)" d="M 1504.61 0 L 1581.93 0 L 1598.25 0 L 1717.24 0 L 1724.27 0 L 1813.29 0 L 2048 0 L 2048 208.933 L 2048 233.035 L 2048 235.292 L 2048 296.368 L 2048 375.263 L 2048 522.055 L 2048 524.413 L 2048 665.5 C 2045.52 662.83 2042.87 660.317 2039.67 658.52 C 2021.91 648.538 2007.68 675.942 1991.55 679.525 C 1962.13 686.06 1947.15 634.537 1926.78 621.71 C 1924.74 620.428 1922.07 619.442 1919.68 620.16 C 1906.06 624.26 1901.95 657.389 1893.81 669.947 C 1887.05 680.366 1878.97 684.594 1867.25 687.193 C 1851.36 683.308 1841.92 672.205 1829.82 662.201 C 1821.07 654.972 1808.42 649.264 1801.87 639.907 C 1777.01 604.427 1794.99 509.6 1775.31 488.179 C 1773.58 486.294 1772.49 485.981 1770.02 485.795 C 1757.55 491.009 1746.02 531.121 1736.94 543.836 C 1730.85 552.355 1721.57 558.816 1711.06 560.265 C 1698.52 561.995 1686.4 556.504 1676.59 549.114 C 1659.71 536.406 1648.01 516.914 1641.27 497.137 C 1609.13 402.786 1683.51 351.393 1676.24 309.379 C 1675.69 306.179 1674.63 303.968 1672 301.992 C 1652.47 298.724 1607.3 366.352 1577.59 376.269 C 1567.54 379.621 1555.05 379.963 1545.46 375.013 C 1533.94 369.071 1527.9 356.031 1524.3 344.168 C 1521.02 333.366 1518.59 320.883 1519.68 309.556 C 1522.81 277.042 1552.15 236.646 1572.33 211.043 C 1581.72 199.124 1592.45 187.217 1599.46 173.696 C 1603.54 165.816 1607.19 156.001 1604.38 147.203 C 1602.38 145.058 1601.91 144.439 1598.81 144.177 C 1587.49 143.223 1570.01 163.293 1561.49 170.113 C 1553.65 176.39 1546.52 180.395 1535.97 178.976 C 1529.26 178.074 1523.16 174.843 1519.32 169.192 C 1503.78 146.355 1518.79 105.811 1523.55 81.0147 C 1519.55 69.296 1512.23 59.3822 1509.61 47.02 C 1506.33 31.5347 1510.73 14.7387 1504.61 0 z"/>
<path transform="translate(0,0)" fill="rgb(92,121,109)" d="M 1724.27 0 L 1813.29 0 L 2048 0 L 2048 208.933 L 2048 233.035 C 1982.13 263.043 1871.16 269.906 1801.36 250.711 C 1786.34 246.609 1771.92 240.58 1758.46 232.774 C 1750.02 227.923 1740.54 222.294 1733.83 215.119 C 1722.02 202.479 1711.85 177.95 1703.3 162.216 C 1693.06 143.359 1681.57 125.244 1670.98 106.585 C 1682.83 114.016 1694.86 119.658 1708.11 124.186 C 1765.82 143.9 1830.39 130.851 1887.46 115.713 C 1899.99 112.388 1915.15 110.003 1926.73 104.278 C 1910.15 104.535 1890.98 112.29 1874.92 116.515 C 1840.23 125.646 1802.75 131.699 1766.77 129.396 C 1744.26 127.954 1721.79 123.683 1701.2 114.32 C 1692.45 110.343 1683.46 105.996 1675.81 100.1 C 1650.42 80.5197 1633.65 44.663 1612.17 20.3089 C 1615.7 21.2601 1619.25 22.1597 1622.8 23.0073 C 1656.53 30.8833 1695.78 17.8966 1724.27 0 z"/>
<path transform="translate(0,0)" fill="rgb(252,251,243)" d="M 1813.29 0 L 2048 0 L 2048 208.933 C 2003.96 187.245 1959.61 195.962 1913.17 199.878 C 1902.09 200.812 1888.19 202.549 1877.56 198.511 C 1874.26 197.254 1870.52 195.092 1869.43 191.467 C 1865.36 177.918 1915.55 150.167 1925.65 140.011 C 1931.09 134.539 1934.32 129.014 1937.12 121.922 C 1936.58 118.142 1936.17 114.122 1934.75 110.558 C 1930.71 100.42 1922.98 92.483 1913.64 87.089 C 1866.49 59.8744 1799.27 96.54 1756.48 77.7595 C 1751.27 75.4724 1743.23 70.5336 1741.59 64.6575 C 1735.92 44.3708 1785.79 31.7292 1797.98 21.9092 C 1805.58 15.7907 1809.41 8.67351 1813.29 0 z"/>
<path transform="translate(0,0)" fill="rgb(92,121,109)" d="M 2048 235.292 L 2048 296.368 L 2048 375.263 L 2048 522.055 C 2039.04 522.915 2029.2 521.839 2020.23 521.149 C 1998.97 519.515 1975.38 514.963 1956.69 504.32 C 1936.47 492.809 1892.97 441.013 1875.23 420.84 C 1868.01 412.629 1860.33 404.862 1853.21 396.557 C 1879.48 410.081 1905.27 421.591 1934.48 427.119 C 1946.61 429.317 1958.86 430.844 1971.16 431.693 C 1979.86 432.216 2021.93 431.747 2027.63 427.873 C 2025.61 425.648 2015.03 427.916 2011.81 428.122 C 1985.41 429.807 1958.74 429.485 1932.85 423.544 C 1903.29 416.761 1869.23 402.857 1846.13 383.071 C 1822.18 362.548 1790.77 309.577 1772.99 281.429 C 1763.17 265.895 1752.96 250.62 1743.23 235.033 C 1750.28 238.592 1757.33 242.163 1764.63 245.185 C 1826.42 270.753 1899.07 268.176 1964.05 258.074 C 1985.31 254.769 2007.44 250.707 2027.89 243.907 C 2034.68 241.648 2041.36 238.068 2048 235.292 z"/>
<path transform="translate(0,0)" fill="rgb(252,251,243)" d="M 2048 296.368 L 2048 375.263 C 2031.66 367.609 2013.82 356.788 2007.48 338.743 C 2005.44 332.943 2005.3 326.841 2008.07 321.241 C 2014.74 307.746 2034.84 301.281 2048 296.368 z"/>
<path transform="translate(0,0)" fill="rgb(252,251,243)" d="M 1581.93 0 L 1598.25 0 L 1717.24 0 L 1724.27 0 C 1695.78 17.8966 1656.53 30.8833 1622.8 23.0073 C 1619.25 22.1597 1615.7 21.2601 1612.17 20.3089 C 1633.65 44.663 1650.42 80.5197 1675.81 100.1 C 1683.46 105.996 1692.45 110.343 1701.2 114.32 C 1721.79 123.683 1744.26 127.954 1766.77 129.396 C 1802.75 131.699 1840.23 125.646 1874.92 116.515 C 1890.98 112.29 1910.15 104.535 1926.73 104.278 C 1915.15 110.003 1899.99 112.388 1887.46 115.713 C 1830.39 130.851 1765.82 143.9 1708.11 124.186 C 1694.86 119.658 1682.83 114.016 1670.98 106.585 C 1681.57 125.244 1693.06 143.359 1703.3 162.216 C 1711.85 177.95 1722.02 202.479 1733.83 215.119 C 1740.54 222.294 1750.02 227.923 1758.46 232.774 C 1771.92 240.58 1786.34 246.609 1801.36 250.711 C 1871.16 269.906 1982.13 263.043 2048 233.035 L 2048 235.292 C 2041.36 238.068 2034.68 241.648 2027.89 243.907 C 2007.44 250.707 1985.31 254.769 1964.05 258.074 C 1899.07 268.176 1826.42 270.753 1764.63 245.185 C 1757.33 242.163 1750.28 238.592 1743.23 235.033 C 1752.96 250.62 1763.17 265.895 1772.99 281.429 C 1790.77 309.577 1822.18 362.548 1846.13 383.071 C 1869.23 402.857 1903.29 416.761 1932.85 423.544 C 1958.74 429.485 1985.41 429.807 2011.81 428.122 C 2015.03 427.916 2025.61 425.648 2027.63 427.873 C 2021.93 431.747 1979.86 432.216 1971.16 431.693 C 1958.86 430.844 1946.61 429.317 1934.48 427.119 C 1905.27 421.591 1879.48 410.081 1853.21 396.557 C 1860.33 404.862 1868.01 412.629 1875.23 420.84 C 1892.97 441.013 1936.47 492.809 1956.69 504.32 C 1975.38 514.963 1998.97 519.515 2020.23 521.149 C 2029.2 521.839 2039.04 522.915 2048 522.055 L 2048 524.413 C 2020.04 524.439 1993.89 523.805 1966.46 517.527 C 1983.19 532.25 1999.03 548.203 2014.9 563.854 C 2025.95 574.759 2038.43 585.639 2047.51 598.249 C 2032.8 590.01 1958.49 521.586 1948.61 507.601 C 1961.05 552.539 1980.81 600.217 1988.92 645.322 C 1983.37 633.691 1980.83 619.027 1976.88 606.611 C 1970.33 586.003 1962.4 565.705 1955.26 545.286 C 1950.7 532.233 1946.95 517.779 1941.16 505.257 C 1940.12 503.008 1939.02 501.246 1937.36 499.405 C 1916.05 475.726 1893.06 453.324 1871.52 429.769 C 1855 411.705 1839.73 391.583 1821.91 374.86 C 1825.81 398.046 1832.41 420.886 1836.39 444.149 C 1841.35 473.065 1842.88 502.094 1845.32 531.259 C 1845.98 539.227 1849 553.83 1847.03 561.342 C 1845.89 560.895 1846.15 561.313 1846.22 560.127 C 1846.82 549.823 1844.06 544.311 1843.07 534.566 C 1839.95 503.71 1837.34 473.174 1831.33 442.697 C 1825.49 413.077 1818.6 381.045 1806.08 353.464 C 1798.23 336.154 1784.9 321.513 1774.65 305.615 C 1758.25 280.195 1743.02 253.843 1726.87 228.224 C 1737.53 285.602 1714.35 356.815 1702.3 412.555 C 1698.86 428.489 1697.86 445.064 1693.86 460.797 L 1693.28 460.045 C 1693.33 427.524 1703.2 395.551 1710.08 364.025 C 1735.16 249.055 1723.73 209.484 1660.11 110.612 C 1660.08 114.739 1660.01 118.864 1659.9 122.989 C 1658.53 169.158 1636.32 213.838 1611.38 251.841 C 1606.51 259.267 1602.1 268.099 1595.58 274.204 C 1596.04 270.246 1605.82 256.816 1608.29 252.717 C 1629.92 216.83 1649.47 179.251 1651.09 136.452 C 1652.36 102.745 1644.31 85.4044 1626.71 57.9732 C 1617.25 43.2199 1607.21 29.8002 1595.26 16.9329 C 1589 52.3999 1572.98 85.4438 1555.8 116.845 C 1551.79 124.183 1547.62 133.343 1541.86 139.403 L 1541.18 139.096 C 1544.17 132.192 1548.17 125.878 1551.49 119.14 C 1566.31 89.0683 1581.15 58.7514 1586.62 25.3711 C 1587.51 19.9189 1589.29 11.4104 1588.01 6.01505 C 1587.27 2.90957 1584.37 1.73887 1581.93 0 z"/>
<path transform="translate(0,0)" fill="rgb(92,121,109)" d="M 1598.25 0 L 1717.24 0 C 1691.1 14.217 1659.04 23.8096 1629.18 18.7936 C 1615.45 16.4874 1606.37 11.2593 1598.25 0 z"/>
<path transform="translate(0,0)" fill="rgb(92,121,109)" d="M 570.523 1266.44 C 554.557 1247.04 519.346 1241.11 496.691 1220.96 C 489.906 1214.93 484.411 1207.35 484.184 1197.96 C 484.018 1191.11 489.25 1183.67 493.827 1178.97 C 536.899 1134.78 643.012 1162.54 670.822 1130.71 C 673.366 1127.8 676.419 1123.32 675.583 1119.22 C 671.799 1100.67 635.284 1104.14 622.707 1094.26 C 620.121 1092.23 618.031 1089.32 617.882 1085.92 C 617.494 1077.1 625.401 1067.09 631.218 1060.87 C 657.052 1033.29 722.036 1004.58 759.357 996.094 C 769.263 993.843 779.24 993.134 789.366 992.792 L 787.026 994.463 C 789.022 995.003 790.265 995.035 792.306 995.099 C 795.483 995.198 798.085 995.652 801.094 996.621 L 801.609 997.679 C 798.65 998.955 795.77 999.711 792.637 1000.45 C 798.61 1000.85 799.471 1000.96 804.588 997.96 C 803.705 1017.23 795.719 1040.95 786.296 1057.64 C 779.283 1061.48 772.552 1064.69 764.748 1066.62 C 752.821 1069.58 739.632 1070.65 727.373 1070.66 C 712.061 1070.68 650.928 1064.21 641.772 1069.6 L 641.825 1070.47 C 654.52 1071.66 667.502 1071.88 680.267 1072.91 C 714.403 1075.67 750.1 1081.32 782.221 1066.53 C 782.077 1066.95 781.926 1067.37 781.787 1067.8 C 775.262 1087.83 751.822 1135.76 736.841 1149.96 C 692.037 1192.44 625.808 1201.82 566.48 1197.94 C 545.536 1196.57 524.948 1192.69 503.961 1191.85 C 503.855 1191.85 503.753 1191.82 503.649 1191.8 L 503.454 1192.85 C 515.484 1195.84 528.96 1197.01 541.284 1198.78 C 608.579 1208.46 682.367 1203.41 738.589 1161.44 C 729.463 1183.13 695.318 1272.83 684.896 1284.94 C 675.595 1295.76 649.405 1312.45 636.417 1318.81 C 571.629 1350.57 502.265 1346.94 432.442 1351.58 C 412.69 1352.89 390.438 1353.69 371.57 1359.61 C 367.98 1360.73 363.258 1360.72 360.484 1363.27 L 361.838 1363.73 C 374.809 1359.03 387.992 1358.7 401.488 1356.79 C 432.125 1352.46 463.138 1353.52 494.018 1353.32 C 550.224 1352.97 611.144 1346.47 659.822 1316.17 C 667.549 1311.36 674.583 1305.44 681.646 1299.72 C 621.943 1413.51 608.722 1495.92 461.6 1516.99 C 444.235 1519.47 390.208 1524.26 378.651 1530.53 L 379.154 1531.22 C 394.936 1531.74 412.581 1526.72 428.361 1524.89 C 439.676 1523.58 451.089 1523.09 462.396 1521.67 C 511.055 1515.57 554.152 1500.21 592.002 1468.12 C 573.848 1504.88 498.477 1595.05 462.869 1613.23 C 451.943 1618.81 439.097 1621.63 427.24 1624.64 C 390.742 1633.9 353.221 1638.3 318.6 1654.11 C 314.014 1656.2 307.338 1658.87 304.435 1663.06 L 305.47 1663.64 C 352.028 1636.32 408.329 1637.84 459.177 1623.26 C 416.603 1666.27 378.506 1712.38 333.178 1752.85 C 356.216 1741.72 404.84 1688.84 425.913 1667.65 C 440.081 1653.6 454.373 1639.68 468.787 1625.89 C 464.258 1645.74 461.747 1666.05 457.481 1685.98 C 453.646 1703.89 447.596 1722.09 445.226 1740.2 C 453.064 1731.79 472.662 1636.51 477.366 1616.95 C 522.78 1575.33 563.517 1530.68 597.638 1479.18 C 595.412 1502.45 570.846 1695.18 572.999 1701.11 C 582.741 1647.59 588.296 1593.25 596.306 1539.44 C 600.086 1514.05 602.625 1485.04 611.869 1461.04 C 618.269 1444.41 631.563 1428.61 640.436 1412.89 C 652.297 1391.88 664.068 1370.02 674.442 1348.23 C 676.728 1343.43 678.427 1338.42 680.782 1333.63 L 682.07 1333.62 C 685.578 1341.82 683.4 1353.44 684.291 1362.43 C 685.323 1372.85 687.124 1383.28 688.69 1393.64 C 694.833 1434.26 703.143 1474.61 710.192 1515.09 C 715.203 1543.87 718.716 1573.54 725.255 1601.98 C 727.774 1594.67 722.3 1570.86 721.097 1562.28 C 717.046 1532.49 712.783 1502.73 708.31 1473 C 701.219 1426.57 687.796 1355.93 696.546 1310.38 C 700.768 1288.4 722.654 1238.99 732.933 1218.44 C 751.747 1283.57 796.485 1354.08 839.754 1406.06 C 844.347 1411.57 869.787 1442.18 874.601 1442.62 C 831.516 1399.81 763.793 1301.73 748.713 1242.46 C 737.773 1199.46 747.56 1175.31 766.229 1137 C 772.172 1124.81 777.276 1111.97 784.168 1100.28 C 784.823 1107.71 785.916 1115.1 787.441 1122.4 C 794.805 1158.34 819.754 1201.6 850.958 1221.95 C 847.18 1216.14 840.318 1211.07 835.562 1205.91 C 827.077 1196.71 819.987 1185.94 813.777 1175.11 C 805.172 1160.1 798.316 1144.03 794.536 1127.11 C 786 1088.89 798.001 1074.35 810.278 1039.08 C 814.063 1028.21 817.534 1017.05 816.289 1005.44 C 831.744 1036.79 855.1 1066.74 842.966 1103.39 C 839.383 1114.21 832.293 1124.13 829.636 1135.18 C 829.132 1137.28 828.61 1139.97 829.213 1142.11 C 834.953 1162.4 875.14 1193.48 887.833 1215.2 C 891.355 1221.23 894.522 1229.02 892.334 1236.06 C 885.477 1258.12 839.41 1243.53 823.704 1243.34 C 817.117 1243.26 809.189 1244.37 803.419 1247.74 C 800.549 1249.41 798.422 1251.83 797.62 1255.12 C 796.198 1260.96 798.416 1267.06 801.59 1271.91 C 808.164 1281.95 818.186 1290.74 826.682 1299.19 C 849.528 1321.92 872.74 1343.4 888.962 1371.69 C 904.259 1398.36 913.925 1432.81 905.272 1463.26 C 902.461 1473.15 894.981 1483.27 885.732 1488.04 C 877.306 1492.39 867.255 1492.88 858.052 1491.43 C 808.227 1483.61 784.556 1431.3 753.444 1422.21 C 750.811 1421.44 748.41 1420.8 746.014 1422.57 C 731.302 1433.48 765.148 1496.62 771.202 1511.35 C 776.054 1523.15 780.258 1535.67 783.369 1548.07 C 787.655 1565.15 788.32 1584.68 786.019 1602.1 C 782.347 1629.9 767.643 1659.72 744.841 1676.77 C 735.584 1683.69 724.794 1687.92 713.099 1685.97 C 676.194 1679.82 675.176 1635.84 657.71 1613.13 C 655.665 1610.47 654.114 1609.46 650.83 1608.94 C 633.359 1616.86 635.676 1685.8 633.221 1704.18 C 631.034 1720.55 626.639 1739.01 617.241 1752.86 C 604.503 1771.62 575.699 1796.96 552.963 1800.67 C 518.894 1806.23 528.695 1749.04 510.667 1738.72 C 488.733 1726.18 461.395 1789.82 435.064 1793.9 C 418.619 1796.45 413.864 1775.27 402.631 1768.11 C 390.925 1760.63 355.473 1778.56 340.776 1781.54 C 331.462 1783.43 321.101 1784.28 312.907 1778.55 C 287.206 1760.57 318.263 1718.74 313.29 1697.9 C 310.695 1687.02 300.998 1690.39 294.287 1684.87 C 291.674 1682.73 290.235 1680.12 289.823 1676.77 C 286.552 1650.18 332.722 1626.02 346.386 1606.79 C 350.5 1601 355.952 1590.15 353.927 1582.8 C 348.539 1563.22 309.791 1580.81 298.679 1571.55 C 296.504 1569.74 295.306 1567.57 294.994 1564.76 C 294.187 1557.48 298.601 1548.73 301.767 1542.32 C 317.374 1510.72 346.079 1482.68 372.362 1459.54 C 384.092 1449.21 397.059 1439.16 406.948 1427.03 C 411.324 1421.67 416.101 1414.64 415.023 1407.35 C 412.421 1389.73 373.265 1393.86 360.614 1391.48 C 351.348 1389.73 343.293 1386.25 335.82 1380.47 C 332.012 1372.14 331.396 1366.11 334.789 1357.4 C 353.337 1309.83 428.794 1285.1 475.49 1284.02 C 498.489 1283.49 537.631 1293.47 557.022 1284.21 C 564.907 1280.44 567.931 1274.36 570.523 1266.44 z"/>
<path transform="translate(0,0)" fill="rgb(169,190,167)" d="M 1061.7 1144.92 C 1066.55 1147.25 1073.65 1147.36 1078.99 1148.14 C 1099.83 1151.2 1118.73 1157.61 1134.7 1171.94 C 1147.79 1183.69 1151.3 1214.18 1169.96 1217.7 C 1193.05 1222.07 1253.57 1195.17 1264.14 1226.37 C 1264.51 1227.47 1264.85 1228.59 1265.15 1229.71 C 1263.28 1238.21 1260.68 1245.4 1256.33 1252.96 C 1250.46 1263.18 1226.75 1288.9 1231.47 1300.23 C 1236.08 1304.74 1243.75 1305.61 1249.94 1305.58 C 1260.9 1305.53 1272.52 1303.09 1283.36 1301.3 C 1325.69 1294.3 1371.06 1282.52 1412.89 1298.26 C 1422.83 1302.01 1432.81 1306.69 1440.64 1314.01 C 1449.16 1321.95 1452.75 1331.86 1452.85 1343.34 C 1452.96 1356.04 1447.32 1366.94 1438.41 1375.7 C 1428.61 1385.33 1416.72 1391.69 1403.9 1396.37 C 1386.55 1402.71 1355.86 1406.24 1342.19 1413.34 C 1338.56 1415.22 1334.13 1418.44 1333.99 1422.95 C 1333.96 1424.04 1334 1424.05 1334.88 1424.78 C 1341.54 1430.31 1356.08 1430.79 1364.42 1431.64 C 1419.11 1437.21 1477.13 1442.28 1511.59 1491.51 C 1520.12 1503.69 1527.95 1518.15 1530.2 1533.01 C 1532.05 1545.26 1529.75 1557.62 1522.33 1567.7 C 1513.73 1579.38 1499.02 1586.69 1484.8 1588.58 C 1466.42 1591.02 1421.75 1579.84 1413.32 1584.7 C 1412.48 1586.33 1412.05 1586.13 1412.72 1587.55 C 1414.93 1592.26 1423.41 1596.16 1427.96 1598.57 C 1479.11 1625.61 1525.32 1638.91 1535.91 1702.69 C 1538.02 1715.37 1539.99 1731.33 1536.42 1743.88 C 1534.55 1750.49 1530.71 1756.25 1524.48 1759.42 C 1503.83 1769.95 1461.43 1740.72 1454.97 1760.43 C 1448.65 1779.69 1483.26 1816.87 1458.06 1833.08 C 1445.98 1840.85 1430.7 1838.03 1420.02 1849.47 C 1406.21 1864.26 1404.92 1930.31 1374.13 1922.74 C 1351.25 1917.11 1339.54 1878.07 1317.68 1890.21 C 1312.4 1893.15 1308.05 1897.07 1301.62 1895.17 C 1293.62 1892.79 1287.94 1881.67 1284.84 1874.56 C 1280.29 1864.13 1277.04 1853.26 1274.37 1842.21 C 1271.77 1831.46 1270.54 1800.02 1259.13 1795.26 C 1256.24 1794.06 1253.16 1794.94 1250.57 1796.41 C 1236.41 1804.5 1225.35 1838.68 1211.44 1834.78 C 1202.82 1832.36 1196.21 1820.75 1192.42 1813.17 C 1178.98 1786.33 1173.59 1751.99 1170.71 1722.41 C 1169.42 1709.09 1169.23 1694.33 1165.65 1681.41 C 1164.2 1676.16 1162.56 1670.37 1156.94 1668.3 C 1152.08 1666.51 1146.7 1667.83 1142.3 1670.21 C 1122.8 1680.72 1102.04 1713.01 1076.57 1705.78 C 1067.75 1703.28 1061.67 1696.08 1057.5 1688.28 C 1043.14 1661.42 1046.41 1626.13 1055.56 1598.14 C 1061.54 1580.23 1070.17 1563.31 1081.15 1547.94 C 1093.77 1530.2 1135.84 1495.2 1123.16 1470.4 C 1121.8 1467.74 1120.25 1466.23 1117.43 1465.17 C 1111.23 1462.84 1102.24 1466.87 1097 1469.96 C 1078.15 1481.07 1053.8 1509.18 1029.73 1503.14 C 1021.84 1501.16 1014.27 1494.74 1010.32 1487.72 C 1003.91 1476.32 1005.67 1460.69 1009.31 1448.58 C 1013.48 1434.71 1020.82 1421.39 1028.58 1409.23 C 1045.66 1382.47 1066.07 1363.33 1071.48 1330.15 C 1072.48 1324 1073.47 1317.02 1070.63 1311.22 C 1069.34 1308.58 1067.05 1306.01 1064.28 1304.92 C 1061.34 1303.76 1058.2 1304.54 1055.6 1306.11 C 1041.08 1314.84 1026.23 1351.4 1005.99 1347.03 C 1001.55 1346.08 998.146 1342.59 995.866 1338.83 C 982.422 1316.71 989.382 1272.06 995.947 1248.51 C 1003.65 1220.87 1022.29 1171.32 1041.45 1150.57 L 1043.72 1149.73 C 1048.61 1153.48 1068.45 1192.34 1072.98 1200.64 C 1067.2 1215.88 1060.84 1230.77 1052.6 1244.86 C 1044.55 1258.62 1008.78 1299.74 1008.61 1312.89 C 1011.56 1310.61 1014.06 1304.67 1016 1301.36 C 1021.99 1291.16 1030.39 1281.57 1037.79 1272.33 C 1054.16 1251.9 1067.96 1233.36 1078.83 1209.3 C 1083.43 1217.84 1087.85 1226.56 1092.76 1234.91 C 1101.26 1249.36 1119.69 1273.11 1122.84 1288.61 C 1126 1304.13 1121.54 1322.9 1117.09 1337.77 C 1110.38 1360.18 1099.6 1381.09 1086.81 1400.62 C 1078.66 1413.06 1029.2 1470.67 1028.27 1477.79 C 1033.97 1475.47 1040.96 1462.4 1045.21 1457.1 C 1071.23 1424.66 1100.15 1396.11 1116.66 1356.95 C 1123.9 1339.79 1131.65 1320.06 1132.41 1301.29 C 1143.33 1318.44 1153.96 1335.85 1165.32 1352.72 C 1191.17 1391.08 1202.22 1400.5 1191.52 1449.4 C 1187.7 1466.88 1180.78 1484.52 1173.17 1500.69 C 1161.87 1524.68 1148.1 1547.76 1135.63 1571.16 C 1121.46 1597.62 1108.64 1624.77 1097.2 1652.52 C 1096.01 1655.38 1090.36 1667.12 1091.61 1669.16 C 1105.33 1643.17 1116.04 1615.68 1129.69 1589.57 C 1154.23 1542.61 1186.21 1497.35 1198.73 1445.1 C 1201.54 1433.4 1202.56 1421.31 1204.3 1409.42 C 1211.35 1423.13 1221.47 1435.31 1229.69 1448.37 C 1238.92 1463.06 1246.95 1478.38 1254.91 1493.78 C 1260.46 1504.49 1267.09 1515.5 1271.28 1526.81 C 1284.98 1563.79 1278.16 1608.31 1266.52 1644.93 C 1258.07 1671.53 1244.36 1696.11 1233.2 1721.61 C 1225.68 1738.82 1220.18 1756.6 1214.82 1774.58 C 1212.55 1782.2 1208.72 1792.24 1208.84 1800.2 C 1210.88 1798.05 1222.27 1758.54 1224.7 1752 C 1240.84 1708.51 1266.56 1668.55 1278.27 1623.5 C 1284.47 1599.62 1284.97 1576.32 1285.01 1551.86 C 1301.08 1585.77 1329.18 1673.49 1328.88 1709.07 C 1328.66 1734.84 1321.54 1758.96 1312.98 1782.99 C 1304.48 1806.84 1298.58 1830.32 1293.07 1855 L 1293.49 1855.06 C 1298.74 1840.82 1301.53 1825.95 1306.48 1811.64 C 1316.79 1781.78 1331.67 1753.52 1334.65 1721.59 C 1340.54 1743.24 1344.66 1765.03 1349.98 1786.76 C 1354.98 1807.17 1361.29 1827.29 1366.91 1847.53 C 1370.68 1861.14 1373.28 1875.48 1378.69 1888.52 C 1372.99 1858.73 1365.3 1830.05 1358.27 1800.59 C 1352.68 1776.08 1347.46 1751.5 1342.61 1726.84 C 1357.69 1743.26 1374.78 1757.11 1390.17 1773.07 C 1399.05 1782.28 1415.92 1804.17 1424.46 1810.5 C 1421.32 1803.95 1414.65 1797.56 1409.92 1792.01 C 1401.54 1782.15 1393.13 1772.27 1384.24 1762.86 C 1370.84 1748.68 1353.03 1732.24 1343.04 1715.52 C 1334.65 1701.49 1329.06 1657.71 1324.06 1638.98 C 1317.8 1615.56 1309.87 1593.14 1302.54 1570.1 C 1326.08 1594.8 1354.21 1613.51 1381.66 1633.45 C 1412.97 1656.19 1444.34 1679.42 1473.82 1704.5 L 1474.39 1704.26 C 1474.08 1703.97 1473.77 1703.7 1473.47 1703.41 C 1420.55 1653.59 1340.88 1610.33 1298.5 1552.46 C 1289.46 1540.12 1284.82 1523.06 1278.07 1509.28 C 1266.46 1485.57 1244.49 1446.8 1228.84 1426.03 C 1268.13 1450.45 1316.28 1468.26 1359.7 1483.89 C 1379.89 1491.16 1400.52 1497.89 1420.28 1506.27 C 1439.05 1514.23 1456.52 1523.71 1474.18 1533.87 C 1456.07 1513.88 1376.68 1486.94 1348.54 1474.62 C 1318.99 1461.99 1289.97 1448.16 1261.55 1433.17 C 1248.39 1426.17 1232.57 1418.97 1221.85 1408.48 C 1209.62 1396.51 1200.21 1379.13 1190.94 1364.84 C 1182.8 1352.29 1174.23 1340.05 1166.83 1327.03 C 1224.77 1352.1 1304.28 1351.21 1366.22 1343.42 C 1364.36 1342.76 1364.18 1342.77 1362.34 1342.91 C 1305.25 1347.42 1242.89 1347.18 1188.72 1326.85 C 1178.75 1323.11 1167.4 1318.67 1159.14 1311.78 C 1141.53 1297.11 1118.12 1252.49 1106 1231.49 C 1147.5 1247.04 1185.57 1252.09 1228.65 1239.18 L 1227.51 1239.22 C 1215.48 1239.75 1203.65 1242.62 1191.64 1243.29 C 1163.34 1244.87 1123.5 1236.45 1101.79 1217.02 C 1087.69 1204.39 1066.84 1164.63 1057.61 1146.49 L 1061.7 1144.92 z"/>
<path transform="translate(0,0)" fill="rgb(169,190,167)" d="M 292.217 1147.24 C 289.268 1150.89 286.292 1154.39 282.819 1157.55 C 276.479 1163.33 266.962 1170.22 257.973 1169.35 C 255.909 1169.15 254.275 1168.23 253.075 1166.52 C 246.691 1157.42 254.803 1140.99 256.091 1131.21 C 259.007 1109.05 242.164 1118.7 235.114 1107.07 C 223.682 1088.23 272.02 1055.69 273.657 1040.97 C 274.936 1029.47 238.84 1032.97 231.916 1025.17 C 228.504 1012.3 259.785 974.04 269.041 963.785 C 281.57 949.901 306.321 932.584 309.211 913.607 C 313.57 884.986 267.975 898.185 257.575 882.364 C 255.079 878.567 255.389 873.845 256.458 869.627 C 259.211 858.76 268.028 850.088 275.842 842.53 C 331.752 788.455 376.564 827.845 402.252 810.769 C 405.078 808.891 408.274 805.986 408.627 802.4 C 409.944 789.045 372.541 776.396 364.947 766.183 C 362.553 762.963 361.55 759.081 362.288 755.12 C 363.419 749.048 368.474 743.895 373.028 740.1 C 404.12 714.188 439.983 744.265 469.717 722.905 C 472.605 720.831 476.02 717.829 476.173 713.979 C 476.604 703.105 453.556 695.929 446.911 688.339 C 444.372 685.439 442.769 681.892 443.113 677.977 C 443.589 672.549 447.613 667.989 451.673 664.711 C 461.646 656.658 474.201 653.253 485.022 646.72 C 492.224 642.372 498.509 636.521 505.908 632.474 C 529.618 619.503 553.175 631.636 577.504 633.262 C 577.902 633.289 578.303 633.282 578.702 633.292 L 580.018 634.277 C 576.466 644.236 564.545 675.767 554.585 679.103 C 539.917 684.015 510.68 676.638 494.478 675.353 C 488.751 674.9 483.196 675.482 477.494 675.905 C 475.61 676.045 472.566 675.704 471.173 676.972 C 477.499 678.588 484.31 677.799 490.797 678.648 C 513.767 681.653 531.531 686.944 555.292 684.755 C 548.647 700.063 541.006 721.268 527.405 731.397 C 526.865 731.799 526.336 732.217 525.799 732.624 L 524.747 733.41 C 522.116 738.859 514.754 737.385 511.617 741.927 L 513.043 743.576 L 529.409 736.612 C 516.611 759.337 511.813 786.841 495.933 807.663 C 488.268 817.713 477.817 825.836 467.11 832.408 C 425.202 858.132 380.148 854.289 333.285 856.451 C 318.522 857.132 304.845 859.382 290.347 861.421 C 303.243 861.709 315.863 859.52 328.717 859.143 C 348.641 858.559 368.599 859.235 388.521 858.776 C 432.148 857.769 471.018 843.152 501.374 811.213 C 488.295 845.813 465.713 909.99 441.08 935.928 C 426.757 951.01 405.769 962.209 386.482 969.452 C 363.5 978.082 339.228 983.083 315.411 988.842 C 299.645 992.654 278.498 995.018 265.683 1005.01 C 280.363 998.246 295.167 996.392 310.785 992.876 C 355.81 982.739 397.905 973.334 436.895 947.234 C 418.799 979.943 376.38 1038.1 341.927 1053.35 C 320.63 1062.78 290.093 1072.39 270.912 1084.21 L 272.262 1084.89 C 299.136 1072.15 328.192 1064.65 355.205 1052.32 C 351.136 1060.48 344.997 1068.17 339.575 1075.49 C 318.979 1103.34 295.121 1127.98 273.431 1154.81 C 283.538 1147.51 291.825 1138.4 300.294 1129.32 C 313.59 1115.2 326.24 1100.49 338.206 1085.22 C 352.508 1067.04 365.848 1048.24 382.695 1032.29 C 387.607 1051.98 381.461 1072.88 379.611 1092.73 C 378.844 1100.97 379.091 1109.23 379.535 1117.48 C 379.741 1121.33 379.463 1126.27 381.091 1129.79 C 382.203 1124.89 381.493 1119.74 381.288 1114.74 C 380.049 1084.71 391.69 1056.4 390.598 1026.57 C 398.578 1015.18 407.835 1004.74 415.64 993.194 C 434.9 964.705 452.662 934.815 471.357 905.9 C 482.485 945.308 484.399 1001.82 484.099 1043.07 C 484.008 1055.56 480.598 1075.03 482.984 1086.35 L 484.557 1093.62 C 484.639 1072.97 488.243 1052.52 488.492 1031.88 C 488.804 1006 488.301 979.528 485.336 953.792 C 483.072 934.141 479.265 914.61 476.645 894.979 C 487.81 867.981 499.7 840.678 509.098 813.036 C 529.075 861.016 556.593 905.495 590.609 944.789 L 591.246 944.78 C 586.278 935.498 579.262 927.576 573.349 918.908 C 547.398 880.865 522.494 847.658 512.997 801.099 C 521.733 777.197 532.745 753.726 543.183 730.517 C 552.739 756.429 566.367 784.482 587.265 803.25 C 584.686 795.727 576.577 787.15 572.054 780.354 C 565.76 771.03 560.361 761.132 555.927 750.793 C 552.825 743.464 547.339 729.77 548.349 721.796 C 548.827 718.023 551.354 714.636 553.239 711.437 C 563.975 693.222 573.125 675.37 580.967 655.729 C 586.004 666.557 594.394 675.658 597.855 687.278 C 602.789 703.848 592.375 718.559 585.107 732.56 C 581.926 738.688 579.112 745.723 580.585 752.736 C 584.009 769.032 617.655 785.287 625.062 810.638 C 626.565 815.78 626.773 821.05 623.981 825.789 C 619.757 832.956 611.508 836.197 603.955 838.407 C 595.479 836.69 575.302 828.773 567.724 830.618 C 564.989 831.283 562.979 832.738 561.53 835.147 C 559.171 839.07 558.723 844.97 560.652 849.146 C 564.33 857.109 572.263 864.706 578.22 871.095 C 600.091 894.55 624.294 919.055 632.235 951.211 C 634.797 961.588 636.253 973.906 630.228 983.339 C 624.536 992.251 612.625 1001 602.288 1002.96 C 573.751 1008.38 556.901 973.138 536.415 960.449 C 533.082 958.385 530.418 957.573 526.504 958.586 C 524.258 960.098 523.045 961.454 521.89 963.867 C 515.34 977.546 529.064 998.763 533.585 1011.91 C 541.423 1034.71 538.224 1059.75 527.535 1081.05 C 515.889 1104.26 498.988 1123.4 473.894 1131.73 C 468.88 1130.38 463.17 1129.27 458.877 1126.25 C 447.194 1118.02 445.05 1105.37 442.69 1092.36 C 441.821 1087.56 441.249 1081.67 437.027 1078.77 C 425.51 1082.51 422.213 1126.47 413.898 1140.32 C 405.59 1154.15 398.876 1166.1 382.268 1170.39 C 381.115 1170.15 379.967 1169.88 378.827 1169.58 C 364.79 1165.93 357.016 1153.3 350.128 1141.6 C 343.471 1151.85 333.702 1162.32 321.472 1165.52 C 312.836 1167.77 306.836 1165.74 299.346 1161.41 C 296.449 1157.04 294.437 1151.99 292.217 1147.24 z"/>
<path transform="translate(0,0)" fill="rgb(252,251,243)" d="M 524.747 733.41 C 522.116 738.859 514.754 737.385 511.617 741.927 L 513.043 743.576 C 482.855 755.362 427.127 764.369 395.119 755.133 C 408.326 755.799 421.702 755.017 434.887 754.216 C 469.62 752.104 492.674 747.988 524.747 733.41 z"/>
<path transform="translate(0,0)" fill="rgb(169,190,167)" d="M 149.206 371.663 C 149.511 374.253 149.524 375.905 150.944 378.176 L 150.182 377.881 L 150.666 379.985 C 151.623 378.748 151.979 377.58 153.562 377.273 C 156.927 381.749 156.966 386.505 158.889 391.504 C 161.617 392.774 162.675 394.071 164.509 396.312 C 165.44 397.451 164.987 397.037 166.283 397.775 C 187.57 428.399 232.449 422.362 239.437 435.097 C 243.628 442.734 231.46 453.151 229.478 460.533 C 230.085 463.317 230.121 464.045 232.698 465.688 C 246.132 474.254 279.04 458.193 294.43 456.375 C 298.561 455.887 304.907 455.824 308.015 459.163 C 310.52 461.853 311.276 467.477 311.132 471.003 C 310.69 481.771 300.201 492.703 291.402 497.928 C 286.178 501.03 278.475 503.789 274.325 508.195 C 272.617 510.009 271.852 511.832 272.406 514.364 C 274.524 524.058 302.305 526.178 310.977 530.409 C 314.773 532.261 318.438 534.919 319.449 539.279 C 323.681 557.536 294.797 555.839 288.733 565.958 C 287.465 568.076 288.328 570.331 289.591 572.219 C 294.697 579.851 303.186 585.615 310.121 591.559 C 320.354 600.329 341.097 618.899 344.702 631.735 C 342.203 646.732 315.624 635.676 307.069 642.284 C 303.951 654.054 329.305 664.789 330.584 677.478 C 330.852 680.139 330.06 681.933 328.29 683.909 C 324.276 688.392 314.294 687.938 308.795 688.272 C 313.7 693.927 322.733 703.133 321.939 711.094 C 321.567 714.824 319.068 718.984 315.957 721.061 C 312.009 723.697 306.562 724.764 301.921 725.442 C 275.411 729.312 273.402 704.007 255.231 702.043 C 247.508 701.209 240.351 713.705 235.541 718.431 C 232.729 721.196 229.376 723.404 225.293 723.235 C 215.274 722.821 202.497 713.608 196.242 705.976 C 187.14 694.873 192.235 677.178 193.419 664.06 C 193.836 659.442 194.299 652.41 191.183 648.642 C 183.114 646.911 168.542 671.108 159.854 675.656 C 156.326 677.503 152.237 678.394 148.411 676.927 C 140.974 674.075 135.737 662.263 132.821 655.32 C 116.548 616.581 138.653 607.371 151.453 576.001 C 154.142 569.412 156.714 559.679 153.823 552.82 C 144.851 548.769 122.108 574.073 104.675 573.845 C 100.64 573.792 96.7485 572.68 93.9403 569.644 C 91.1106 566.584 89.7134 562.272 89.033 558.241 C 83.6357 526.264 141.099 499.92 141.601 481.666 C 135.871 475.381 120.325 483.033 112.337 478.742 C 110.161 477.573 108.88 476.365 108.244 473.916 C 105.929 464.998 120.928 449.926 125.815 442.79 C 113.819 415.223 142.243 411.292 148.406 387.875 C 149.711 382.914 149.206 376.793 149.206 371.663 z"/>
<path transform="translate(0,0)" fill="rgb(252,251,243)" d="M 153.562 377.273 C 156.927 381.749 156.966 386.505 158.889 391.504 C 162.519 405.783 161.638 422.159 169.114 435.083 C 173.781 443.152 180.619 451.78 189.889 454.322 C 191.726 454.825 192.867 455.047 194.483 456.174 C 195.81 457.099 195.399 456.938 195.676 458.714 L 193.85 459.476 C 184.157 457.269 173.64 447.72 168.058 439.658 C 170.745 452.431 172.44 467.452 177.918 479.341 C 182.229 488.7 190.328 494.047 199.781 497.482 C 230.481 508.64 258.04 493.617 285.53 480.737 L 285.766 481.089 C 270.681 490.619 255.583 498.926 238.073 503.207 C 217.34 508.277 199 504.328 180.96 493.315 C 184.631 508.813 187.737 523.199 196.348 536.837 C 220.082 546.922 242.327 545.325 267.435 544.856 C 278.023 544.658 288.625 545.106 299.232 544.951 L 299.873 545.625 C 291.471 549.013 234.113 548.933 223.195 547.694 C 213.639 546.61 204.917 544.231 195.769 541.308 C 202.974 560.545 218.201 595.029 235.539 606.051 C 244.688 611.867 256.638 614.523 267.132 616.764 C 276.164 618.692 288.478 619.636 296.546 624.034 C 296.93 624.243 297.305 624.471 297.684 624.69 C 276.914 621.479 256.344 619.035 236.214 612.723 C 248.032 630.13 255.883 649.885 266.827 667.827 C 270.229 673.404 284.408 690.695 285.482 694.677 C 256.787 668.272 247.053 627.667 220.37 599.708 C 224.084 628.742 222.946 656.319 220.104 685.354 L 219.552 685.316 C 218.85 672.827 220.047 660.435 220.268 647.952 C 221.113 600.294 213.706 582.778 190.333 541.852 C 187.505 578.34 166.876 609.715 153.813 643.149 C 155.165 628.936 163.627 613.752 169.502 600.85 C 197.351 539.687 184.329 526.505 168.657 467.389 C 163.598 491.053 155.541 506.818 138.748 524.435 L 138.07 523.932 C 143.045 517.399 147.684 510.616 151.967 503.609 C 164.067 483.384 170.148 462.561 163.187 439.15 C 162.44 436.636 162.069 435.294 159.728 433.916 C 153.807 436.383 149.273 448.302 145.165 453.319 C 142.111 457.048 138.202 459.826 134.33 462.638 C 137.428 457.805 141.507 453.792 145.125 449.356 C 158.036 433.523 159.305 418.418 156.394 398.862 C 155.486 392.764 152.535 385.213 153.28 379.11 C 153.355 378.495 153.468 377.885 153.562 377.273 z"/>
</svg>