<svg width="14" height="18" viewBox="0 0 14 18" fill="none" xmlns="http://www.w3.org/2000/svg">
<path d="M13 9.25034C13 13.0003 10.375 14.8753 7.255 15.9628C7.09162 16.0182 6.91415 16.0156 6.7525 15.9553C3.625 14.8753 1 13.0003 1 9.25034V4.00034C1 3.80142 1.07902 3.61066 1.21967 3.47001C1.36032 3.32936 1.55109 3.25034 1.75 3.25034C3.25 3.25034 5.125 2.35034 6.43 1.21034C6.58889 1.07459 6.79102 1 7 1C7.20898 1 7.41111 1.07459 7.57 1.21034C8.8825 2.35784 10.75 3.25034 12.25 3.25034C12.4489 3.25034 12.6397 3.32936 12.7803 3.47001C12.921 3.61066 13 3.80142 13 4.00034V9.25034Z" stroke="#5A6F5A" stroke-width="2" stroke-linecap="round" stroke-linejoin="round"/>
</svg>
