<svg width="13" height="16" viewBox="0 0 13 16" fill="none" xmlns="http://www.w3.org/2000/svg">
<path d="M11.9737 8.55294C11.9737 11.974 9.57895 13.6845 6.73263 14.6766C6.58359 14.7271 6.42169 14.7247 6.27421 14.6698C3.42105 13.6845 1.02632 11.974 1.02632 8.55294V3.76347C1.02632 3.582 1.0984 3.40797 1.22672 3.27966C1.35503 3.15134 1.52906 3.07926 1.71053 3.07926C3.07895 3.07926 4.78947 2.2582 5.98 1.2182C6.12495 1.09436 6.30935 1.02632 6.5 1.02632C6.69065 1.02632 6.87505 1.09436 7.02 1.2182C8.21737 2.26504 9.92105 3.07926 11.2895 3.07926C11.4709 3.07926 11.645 3.15134 11.7733 3.27966C11.9016 3.40797 11.9737 3.582 11.9737 3.76347V8.55294Z" stroke="#5A6F5A" stroke-width="2" stroke-linecap="round" stroke-linejoin="round"/>
</svg>
