<svg width="14" height="14" viewBox="0 0 14 14" fill="none" xmlns="http://www.w3.org/2000/svg">
<path d="M6.71671 1.20051C6.7429 1.14761 6.78335 1.10308 6.8335 1.07194C6.88365 1.04081 6.9415 1.02431 7.00053 1.02431C7.05956 1.02431 7.11742 1.04081 7.16757 1.07194C7.21772 1.10308 7.25817 1.14761 7.28435 1.20051L8.66461 3.99629C8.75554 4.1803 8.88976 4.3395 9.05576 4.46023C9.22176 4.58095 9.41457 4.65959 9.61765 4.6894L12.7044 5.14112C12.7629 5.1496 12.8178 5.17427 12.863 5.21235C12.9082 5.25042 12.9419 5.30039 12.9602 5.35659C12.9784 5.41279 12.9806 5.47299 12.9665 5.53037C12.9523 5.58775 12.9224 5.64002 12.8801 5.68128L10.6478 7.85504C10.5005 7.9985 10.3904 8.17559 10.3268 8.37107C10.2632 8.56654 10.2481 8.77454 10.2827 8.97717L10.8097 12.0484C10.82 12.1069 10.8137 12.167 10.7915 12.2221C10.7692 12.2771 10.732 12.3248 10.6839 12.3597C10.6359 12.3946 10.579 12.4153 10.5198 12.4194C10.4606 12.4235 10.4014 12.4109 10.349 12.383L7.58968 10.9322C7.40787 10.8368 7.20559 10.7869 7.00023 10.7869C6.79488 10.7869 6.5926 10.8368 6.41079 10.9322L3.65206 12.383C3.59968 12.4107 3.54056 12.4232 3.48144 12.419C3.42232 12.4148 3.36556 12.3941 3.31763 12.3592C3.26969 12.3244 3.23251 12.2768 3.21029 12.2218C3.18808 12.1669 3.18173 12.1068 3.19197 12.0484L3.71838 8.97777C3.75316 8.77505 3.73809 8.56691 3.67449 8.37132C3.61089 8.17572 3.50066 7.99853 3.3533 7.85504L1.12099 5.68187C1.07832 5.64067 1.04809 5.5883 1.03373 5.53075C1.01937 5.47319 1.02146 5.41276 1.03977 5.35634C1.05808 5.29992 1.09187 5.24978 1.13729 5.21162C1.1827 5.17346 1.23792 5.14883 1.29666 5.14053L4.38282 4.6894C4.58613 4.65982 4.77921 4.58129 4.94543 4.46055C5.11166 4.33981 5.24605 4.18048 5.33705 3.99629L6.71671 1.20051Z" fill="#FFD700" stroke="black" stroke-width="2" stroke-linecap="round" stroke-linejoin="round"/>
</svg>
